<?xml version="1.0" encoding="utf-8"?>
<!-- Generator: Adobe Illustrator 23.1.0, SVG Export Plug-In . SVG Version: 6.00 Build 0)  -->
<svg version="1.1" id="Capa_1" xmlns="http://www.w3.org/2000/svg" xmlns:xlink="http://www.w3.org/1999/xlink" x="0px" y="0px"
	 viewBox="0 0 512 512" style="enable-background:new 0 0 512 512;" xml:space="preserve">
<style type="text/css">
	.st0{fill:url(#SVGID_1_);}
</style>
<g>
	<g>
		<linearGradient id="SVGID_1_" gradientUnits="userSpaceOnUse" x1="46" y1="256" x2="466" y2="256">
			<stop  offset="0" style="stop-color:#189EAD"/>
			<stop  offset="0.5698" style="stop-color:#158693"/>
			<stop  offset="1" style="stop-color:#12697A"/>
		</linearGradient>
		<path class="st0" d="M436,0H76C59.5,0,46,13.5,46,30v17.5c0,51,33.5,96.4,83.2,110.9c8.7,38.9,35,71.8,71.4,89
			c15.7,7.4,25.5,22.3,25.5,38.9v8.9c0,17.5-12.2,29.1-19.5,34.4C196.4,337,189.5,348,187,360h-31c-5.5,0-10,4.5-10,10v122h-10
			c-5.5,0-10,4.5-10,10s4.5,10,10,10h240c5.5,0,10-4.5,10-10s-4.5-10-10-10h-10V370c0-5.5-4.5-10-10-10h-31
			c-2.5-12-9.4-23-19.4-30.3c-7.3-5.3-19.5-16.9-19.5-34.4v-8.9c0-16.6,9.8-31.5,25.5-38.9c36.4-17.2,62.7-50.1,71.4-89
			C432,144.2,466,99.2,466,47.5V30C466,13.5,452.5,0,436,0z M66,47.5V30c0-5.5,4.5-10,10-10h50v110c0,2.1,0.1,4.2,0.2,6.3
			C90.1,122,66,87.3,66,47.5z M346,380v112H166V380H346z M366,130c0,6.3-0.5,12.6-1.6,18.7c0,0,0,0.1,0,0.1
			c-3,17.6-10.3,33.9-20.8,47.7c-10.6,13.8-24.4,25.2-40.6,32.8c-22.8,10.8-36.9,32.6-36.9,57v8.9c0,19.2,10.1,37.6,27.7,50.5
			c5,3.7,8.6,8.6,10.6,14.2h-96.6c2-5.6,5.6-10.5,10.6-14.2c17.6-12.9,27.7-31.3,27.7-50.5v-8.9c0-24.4-14.2-46.2-36.9-57
			c-32.5-15.3-55.4-45.5-61.5-80.7c-1.1-6.1-1.6-12.4-1.6-18.7V60h220V130z M366,40H146V20h220V40z M446,47.5
			c0,39.6-24.2,74.5-60.2,88.8c0.1-2.1,0.2-4.2,0.2-6.3V20h50c5.5,0,10,4.5,10,10V47.5z"/>
	</g>
</g>
</svg>
