<svg id="Layer_1" data-name="Layer 1" xmlns="http://www.w3.org/2000/svg" viewBox="0 0 517.0394 465.6619"><path d="M149.92,463.2a7.3989,7.3989,0,1,1,0-14.7978H160.521V362.6014a34.5373,34.5373,0,0,1,34.499-34.499h2.55l.3066-1.3145a44.3,44.3,0,0,1,16.9463-25.7138c6.832-4.9678,18.2988-15.7959,18.2988-32.4727v-8.1006c0-15.6543-9.2256-29.7314-24.0762-36.7383a115.4577,115.4577,0,0,1-63.666-79.4365l-.2207-.9775-.9629-.28A102.88,102.88,0,0,1,70.1206,44.3006v-15.8A25.6527,25.6527,0,0,1,95.62,3.0018H421.42a25.6037,25.6037,0,0,1,25.4981,25.4111V44.4012a102.7876,102.7876,0,0,1-73.8779,98.8682l-.962.2822-.2187.98a115.1015,115.1015,0,0,1-63.667,79.4316c-14.8486,7.0069-24.0742,21.084-24.0742,36.7383v8.1c0,16.6768,11.4658,27.5059,18.3008,32.4766a43.7819,43.7819,0,0,1,16.7412,25.5957l.2978,1.3291H322.02a34.6635,34.6635,0,0,1,34.4991,34.499v85.8008H367.12a7.3581,7.3581,0,0,1,7.3994,7.2988v.1006A7.3841,7.3841,0,0,1,367.12,463.2Zm45.1-120.5a19.8237,19.8237,0,0,0-19.8017,19.8008V448.202H341.8208V362.5008A19.8235,19.8235,0,0,0,322.02,342.7ZM157.4185,118.9012A89.2255,89.2255,0,0,0,158.8462,136.1a101.5418,101.5418,0,0,0,56.6494,74.24c19.9961,9.56,32.4229,28.7441,32.4229,50.0615v8.1c0,16.7578-8.8955,32.916-24.4063,44.33a29.1646,29.1646,0,0,0-9.8779,12.9561l-.8975,2.3154h91.8663l-.8975-2.3154a29.1576,29.1576,0,0,0-9.876-12.9541c-15.5137-11.3458-24.4082-27.502-24.4082-44.3321v-8.1c0-21.3642,12.4258-40.5478,32.4287-50.0644a100.9088,100.9088,0,0,0,56.4453-74.1475l.0254-.1426v-.11a120.0939,120.0939,0,0,0,1.4991-17.0059l.1035-65.03H157.4185Zm217.1006.1c0,1.8369-.0987,3.7276-.1944,5.5557l-.14,2.6514,2.4639-.9268a87.7653,87.7653,0,0,0,55.5556-80.2793h.0166l.1-1.7012v-15.8A10.9588,10.9588,0,0,0,421.52,17.7H374.5191ZM95.5855,17.6A10.9528,10.9528,0,0,0,84.8189,28.4012V44.3006a87.1851,87.1851,0,0,0,55.6787,81.8838l2.459.9658-.1387-2.6377c-.0986-1.8828-.1973-3.7744-.1973-5.6113V17.6H95.6021ZM157.2183,39.202H359.7212V17.7H157.2183Z"/></svg>