<svg id="Capa_1" data-name="Capa 1" xmlns="http://www.w3.org/2000/svg" viewBox="0 0 512 442.05005"><defs><style>.cls-1{fill:#fff;}</style></defs><rect class="cls-1" x="5.95741" y="162.43308" width="3.02128" height="0.08511"/><path class="cls-1" d="M484.66,5.01H27.34A27.365,27.365,0,0,0,0,32.35V430.5a16.58248,16.58248,0,0,0,16.57,16.56H495.43A16.5846,16.5846,0,0,0,512,430.49V32.35A27.365,27.365,0,0,0,484.66,5.01ZM497,430.49a1.5663,1.5663,0,0,1-1.57,1.57H16.57A1.56418,1.56418,0,0,1,15,430.5V94.9c106.26-.35,254.97-.36,363.59-.02.26.02.52.04.77.04h.08c1.09-.01,2.17-.02,3.26-.03,2.94.01,5.86.02,8.74.03h.03a7.42838,7.42838,0,0,0,1.24-.11c34.65-.26,68.97-.24,104.29.05Zm0-350.63c-38.72-.32-76.24-.31-114.3.03-108.97-.35-260.1-.34-367.7.01V32.35A12.35957,12.35957,0,0,1,27.34,20.01H484.66A12.34458,12.34458,0,0,1,497,32.34Z" transform="translate(0 -5.00995)"/><path class="cls-1" d="M341.693,43.84735H74.16a7.5,7.5,0,0,0,0,15H341.694a7.5,7.5,0,0,0-.001-15Z" transform="translate(0 -5.00995)"/><circle class="cls-1" cx="436.72762" cy="51.34735" r="8.61236" transform="translate(222.16026 430.17123) rotate(-67.49997)"/><circle class="cls-1" cx="404.67877" cy="46.3374" r="8.61237"/><circle class="cls-1" cx="372.62994" cy="46.3374" r="8.61237"/><path class="cls-1" d="M105.95683,292.53633a23.07636,23.07636,0,0,1-23.01075-23.01367V240.24274L68.68241,225.98005a7.57216,7.57216,0,0,1,.001-10.69385l14.26269-14.26269V171.7733a23.07594,23.07594,0,0,1,23.01319-23.01074h11.32666a7.5625,7.5625,0,0,1-.00147,15.125H105.95683a7.90579,7.90579,0,0,0-7.88575,7.88281v32.385a7.54282,7.54282,0,0,1-2.21093,5.34278L84.72538,220.63386l11.13086,11.13037a7.57757,7.57757,0,0,1,2.21484,5.35254v32.40882a7.90474,7.90474,0,0,0,7.88379,7.88574h11.33106a7.5625,7.5625,0,0,1-.001,15.125Z" transform="translate(0 -5.00995)"/><path class="cls-1" d="M156.83531,163.76256H355.16469a7.5,7.5,0,0,0,0-15H156.83531a7.5,7.5,0,0,0,0,15Z" transform="translate(0 -5.00995)"/><path class="cls-1" d="M355.16469,191.63359H156.83531a7.5,7.5,0,0,0,0,15H355.16469a7.5,7.5,0,0,0,0-15Z" transform="translate(0 -5.00995)"/><path class="cls-1" d="M156.83531,249.50462H355.16469a7.5,7.5,0,0,0,0-15H156.83531a7.5,7.5,0,0,0,0,15Z" transform="translate(0 -5.00995)"/><path class="cls-1" d="M355.16469,277.37566H156.83531a7.5,7.5,0,0,0,0,15H355.16469a7.5,7.5,0,0,0,0-15Z" transform="translate(0 -5.00995)"/><path class="cls-1" d="M156.83531,335.24669H355.16469a7.5,7.5,0,0,0,0-15H156.83531a7.5,7.5,0,0,0,0,15Z" transform="translate(0 -5.00995)"/><path class="cls-1" d="M355.16469,363.11772H156.83531a7.5,7.5,0,0,0,0,15H355.16469a7.5,7.5,0,0,0,0-15Z" transform="translate(0 -5.00995)"/><path class="cls-1" d="M406.04317,234.344a23.07636,23.07636,0,0,1,23.01075,23.01367v29.27992l14.26367,14.26269a7.57216,7.57216,0,0,1-.001,10.69385l-14.26269,14.26269V355.107a23.07594,23.07594,0,0,1-23.01319,23.01074H394.71407a7.5625,7.5625,0,0,1,.00147-15.125h11.32763a7.90579,7.90579,0,0,0,7.88575-7.88281v-32.385a7.54282,7.54282,0,0,1,2.21093-5.34278l11.13477-11.13574L416.14376,295.116a7.57757,7.57757,0,0,1-2.21484-5.35254V257.35469a7.90474,7.90474,0,0,0-7.88379-7.88574H394.71407a7.5625,7.5625,0,0,1,.001-15.125Z" transform="translate(0 -5.00995)"/></svg>