<svg id="Layer_1" data-name="Layer 1" xmlns="http://www.w3.org/2000/svg" viewBox="0 0 79.96867 80"><defs><style>.cls-1{fill:#fff;}</style></defs><path class="cls-1" d="M32.217,39.47775H46.5167a1.52941,1.52941,0,0,1,0,3.05881H24.19016a1.53114,1.53114,0,0,1-1.52941-1.5294V35.13251c0-.19807.00817-.39512.0194-.59114l.00612-.11027H15.06986a1.53114,1.53114,0,0,1-1.52941-1.5294V29.85a7.54766,7.54766,0,0,1,5.81339-7.36526l2.98633-.71365v-.60339a7.42236,7.42236,0,0,1-3.12825-5.99V11.3991A7.19961,7.19961,0,0,1,31.10925,5.9359l.11027.09495.05513-.13476a9.43287,9.43287,0,0,1,17.48407-.01328l.05513.13375.11027-.09393a7.1997,7.1997,0,0,1,11.882,5.47647v3.7786A7.21858,7.21858,0,0,1,57.72281,21.082l-.0439.60747v.0827l2.98531.71366A7.54833,7.54833,0,0,1,66.47863,29.851V32.9017a1.53114,1.53114,0,0,1-1.52941,1.5294H57.31136l.00613.11027c.01123.19807.0194.39613.0194.59624v5.86955a1.53114,1.53114,0,0,1-1.52941,1.5294h-9.982a1.52941,1.52941,0,1,1,0-3.05881h8.45259V35.13761A6.86617,6.86617,0,0,0,48.99048,28.437L44.437,27.34967l-3.03227,6.8946a1.5282,1.5282,0,0,1-2.79847,0l-3.03636-6.90583-4.56781,1.09448a6.8681,6.8681,0,0,0-5.28248,6.70061v4.34422h3.43862M52.5853,22.93093a1.54254,1.54254,0,0,1-.69834,1.32419,1.50993,1.50993,0,0,1-.55132.21951l-2.45543.58808v.20419l.82086.196a9.96221,9.96221,0,0,1,6.87417,5.845l.02757.06432h6.817V29.851a4.50165,4.50165,0,0,0-3.46516-4.3922l-4.16045-.9934a1.524,1.524,0,0,1-1.17411-1.48755v-.66771l-.11741.01429a7.14261,7.14261,0,0,1-.90356.06024,7.01778,7.01778,0,0,1-.8964-.05922l-.11742-.01429Zm-27.18632.047a1.523,1.523,0,0,1-1.17513,1.48755l-4.15942.9934a4.50016,4.50016,0,0,0-3.46516,4.3922v1.52125H23.3938l.02757-.06432a9.96031,9.96031,0,0,1,6.86907-5.84811l.826-.19806v-.2042l-2.437-.584a1.48239,1.48239,0,0,1-.54724-.21849,1.52825,1.52825,0,0,1-.70038-1.28642l.002-.6575-.11741.01429a7.0303,7.0303,0,0,1-.89641.05922,7.11714,7.11714,0,0,1-.90355-.06024l-.11742-.01429Zm12.58649,2.23286L40.006,29.8296l2.00723-4.56576.00816-1.33951-.12455.02552a9.47952,9.47952,0,0,1-3.78575-.00612l-.12558-.02655Zm9.94524-5.3754a9.5691,9.5691,0,0,1-2.80357,2.79337l-.047.19909v.16029l.147-.06432a7.53559,7.53559,0,0,1,1.30071-.44106l2.99859-.71876v-.59114a9.82751,9.82751,0,0,1-1.42834-1.34768l-.09086-.1072Zm-15.99856-.02348a7.30551,7.30551,0,0,1-1.39566,1.27519l-.0439.5942v.0827l2.99756.71876a7.64255,7.64255,0,0,1,1.2905.43494l.146.06432v-.28587a10.41677,10.41677,0,0,1-2.82706-2.874l-.07657-.11843Zm1.7091-5.112a6.37773,6.37773,0,0,0,12.75087.243V12.272l-3.48661-2.10728-.05717.05105a10.18276,10.18276,0,0,1-6.87009,2.65451h-2.337Zm15.81581,0-.00613.47781a4.1482,4.1482,0,0,0,8.29639,0v-.88211h-2.384A14.984,14.984,0,0,1,49.601,13.148l-.144-.05922Zm-27.1853.47781a4.14768,4.14768,0,1,0,8.29536,0V13.08676l-.144.05922a14.99991,14.99991,0,0,1-5.76744,1.14961h-2.384ZM53.59912,7.25091A4.15138,4.15138,0,0,0,49.7899,9.75534l-.0388.08985.08678.04492a12.05633,12.05633,0,0,0,5.52548,1.34666h2.38191l-.00714-.11129A4.1562,4.1562,0,0,0,53.59912,7.25091Zm-27.17917,0a4.15643,4.15643,0,0,0-4.14,3.87457l-.00715.11129h2.38294a12.06154,12.06154,0,0,0,5.52445-1.34666l.08679-.04492-.0388-.08985A4.14889,4.14889,0,0,0,26.42,7.25091ZM40.01924,3.05882a6.38556,6.38556,0,0,0-6.378,6.379V9.8115h2.337A7.14227,7.14227,0,0,0,41.466,7.25193a1.52885,1.52885,0,0,1,1.946-.33692l2.94141,1.72748L46.31759,8.424A6.34908,6.34908,0,0,0,40.01924,3.05882Z" transform="translate(-0.01531)"/><path class="cls-1" d="M35.02467,78.25351a4.2378,4.2378,0,0,0-.05335-.5q-.16263-1.04-.39393-2.06767-.11274-.50094-.24166-.99806a3.7841,3.7841,0,0,1-.213-.88q-.55184-2.59189-1.10456-5.18359c-.19521-.91573-.39313-1.83094-.5856-2.74726a23.07,23.07,0,0,0-2.24912-6.17763,21.81628,21.81628,0,0,0-2.40909-3.60858,22.95286,22.95286,0,0,0-5.028-4.58816L17.2785,47.824a5.36766,5.36766,0,0,0-2.98882-.90967,5.43208,5.43208,0,0,0-3.84846,1.60935l-.16992.17992V29.63109A5.11371,5.11371,0,0,0,6.25285,24.623a5.32872,5.32872,0,0,0-1.11955-.11995,5.13109,5.13109,0,0,0-5.118,5.128V53.88644a15.001,15.001,0,0,0,2.78888,8.71171l1.11956,1.5694,4.0484,5.68777,5.098,7.14716L14.2627,78.68a2.99881,2.99881,0,0,0,2.44418,1.26132H18.558c3.67854-.00263,7.35759.01363,11.03605-.00791.74386-.0043,1.48718.02945,2.23085.03937a8.47789,8.47789,0,0,0,2.01573-.0659,1.45433,1.45433,0,0,0,.99606-.74013A1.78006,1.78006,0,0,0,35.02467,78.25351Zm-18.36592-1.241-4.83807-6.78732L6.45279,62.69809,5.18327,60.90881a12.16662,12.16662,0,0,1-2.24912-7.05723V29.63109a2.18376,2.18376,0,0,1,.82969-1.71936,2.21725,2.21725,0,0,1,1.36946-.47979,1.90944,1.90944,0,0,1,.47979.05,2.19225,2.19225,0,0,1,1.7293,2.14918V48.85354a10.797,10.797,0,0,0,2.799,7.25717c.07.08993.1499.17992.22989.26991.23989.25985,1.02956,1.09954,2.00922,2.13911.67972.70975,1.43944,1.52943,2.17914,2.3091,1.69934,1.79934,3.25873,3.45866,3.25873,3.45866a1.438,1.438,0,0,0,1.05958.45985,1.45924,1.45924,0,0,0,1.06959-2.45906c-.02-.01-1.0896-1.14958-2.4191-2.569-.68973-.7397-1.45938-1.55939-2.17913-2.32911-1.5694-1.67933-2.93886-3.12878-2.95881-3.14873a2.72138,2.72138,0,0,1,.05-3.57861,2.4845,2.4845,0,0,1,1.83925-.81969,2.44823,2.44823,0,0,1,1.36946.40988L21.107,53.93157a20.97748,20.97748,0,0,1,2.33911,1.82924A19.26455,19.26455,0,0,1,26.175,58.80966a20.03232,20.03232,0,0,1,3.38869,7.667l2.23911,10.52584Z" transform="translate(-0.01531)"/><path class="cls-1" d="M44.97461,78.25351a4.242,4.242,0,0,1,.05335-.5q.16263-1.04.39393-2.06767.11275-.50094.24166-.99806a3.7841,3.7841,0,0,0,.213-.88q.55184-2.59189,1.10456-5.18359c.19522-.91573.39313-1.83094.5856-2.74726a23.0707,23.0707,0,0,1,2.24912-6.17763,21.81628,21.81628,0,0,1,2.40909-3.60858,22.95286,22.95286,0,0,1,5.028-4.58816L62.72078,47.824a5.36766,5.36766,0,0,1,2.98882-.90967,5.43212,5.43212,0,0,1,3.84847,1.60935l.16991.17992V29.63109A5.11372,5.11372,0,0,1,73.74643,24.623a5.32881,5.32881,0,0,1,1.11956-.11995,5.13111,5.13111,0,0,1,5.118,5.128V53.88644a15.00091,15.00091,0,0,1-2.78889,8.71171l-1.11956,1.5694-4.0484,5.68777-5.098,7.14716L65.73658,78.68a2.99879,2.99879,0,0,1-2.44418,1.26132H61.44125c-3.67854-.00263-7.35759.01363-11.036-.00791-.74385-.0043-1.48717.02945-2.23084.03937a8.478,8.478,0,0,1-2.01574-.0659,1.45431,1.45431,0,0,1-.996-.74013A1.78007,1.78007,0,0,1,44.97461,78.25351Zm18.36592-1.241,4.83807-6.78732,5.36789-7.52708L74.816,60.90881a12.1667,12.1667,0,0,0,2.24912-7.05723V29.63109a2.18374,2.18374,0,0,0-.8297-1.71936,2.21724,2.21724,0,0,0-1.36945-.47979,1.90952,1.90952,0,0,0-.4798.05,2.19225,2.19225,0,0,0-1.7293,2.14918V48.85354a10.797,10.797,0,0,1-2.799,7.25717c-.07.08993-.14991.17992-.22989.26991-.2399.25985-1.02957,1.09954-2.00923,2.13911-.67972.70975-1.43943,1.52943-2.17913,2.3091-1.69935,1.79934-3.25874,3.45866-3.25874,3.45866a1.438,1.438,0,0,1-1.05958.45985,1.45924,1.45924,0,0,1-1.06959-2.45906c.02-.01,1.0896-1.14958,2.4191-2.569.68973-.7397,1.45939-1.55939,2.17914-2.32911,1.56939-1.67933,2.93885-3.12878,2.9588-3.14873a2.72138,2.72138,0,0,0-.05-3.57861,2.4845,2.4845,0,0,0-1.83924-.81969,2.44821,2.44821,0,0,0-1.36946.40988l-5.45789,3.67855a20.97748,20.97748,0,0,0-2.33911,1.82924,19.265,19.265,0,0,0-2.72891,3.04885,20.03232,20.03232,0,0,0-3.38869,7.667L48.19644,77.00248Z" transform="translate(-0.01531)"/></svg>