<svg id="Layer_1" data-name="Layer 1" xmlns="http://www.w3.org/2000/svg" viewBox="0 0 58.54004 80"><defs><style>.cls-1{fill:#fff;}</style></defs><path class="cls-1" d="M18.89618,32.08484a3.14955,3.14955,0,0,0,1.97363.69531h3.62988a.56483.56483,0,0,1,.57032.57031v3.62989a3.17332,3.17332,0,0,0,3.16992,3.16992h1.99023a3.17333,3.17333,0,0,0,3.16993-3.16992V33.35046a.571.571,0,0,1,.57031-.57031h3.63965A3.17332,3.17332,0,0,0,40.78,29.61023V27.62a3.17333,3.17333,0,0,0-3.16992-3.16993H33.9704a.57868.57868,0,0,1-.57031-.57031V20.24011a3.17333,3.17333,0,0,0-3.16993-3.16992H28.23993A3.17332,3.17332,0,0,0,25.07,20.24011v3.63965a.571.571,0,0,1-.57032.57031H20.86981A3.18035,3.18035,0,0,0,17.69989,27.62v1.99023A3.14383,3.14383,0,0,0,18.89618,32.08484ZM20.236,27.04968h4.26367a3.17333,3.17333,0,0,0,3.16993-3.16992V20.24011a.57869.57869,0,0,1,.57031-.57031h1.99023a.571.571,0,0,1,.57032.57031v3.63965a3.17332,3.17332,0,0,0,3.16992,3.16992h3.63965a.571.571,0,0,1,.57031.57032v1.99023a.57869.57869,0,0,1-.57031.57031H33.9704a3.17332,3.17332,0,0,0-3.16992,3.16992v3.62989a.56483.56483,0,0,1-.57032.57031H28.23993a.571.571,0,0,1-.57031-.57031V33.35046a3.17333,3.17333,0,0,0-3.16993-3.16992H20.236Z" transform="translate(-10.72998)"/><path class="cls-1" d="M64.76,0H23.24a4.50681,4.50681,0,0,0-4.5,4.5V8.01h-3.5a4.50894,4.50894,0,0,0-4.51,4.5V75.5A4.5089,4.5089,0,0,0,15.24,80H56.76a4.50677,4.50677,0,0,0,4.5-4.5V71.99h3.5a4.5089,4.5089,0,0,0,4.51-4.5V4.5A4.50894,4.50894,0,0,0,64.76,0Zm-6.5,68.99V75.5a1.498,1.498,0,0,1-1.5,1.5H15.24a1.50019,1.50019,0,0,1-1.51-1.5V12.51a1.50019,1.50019,0,0,1,1.51-1.5h31v7.67a4.50632,4.50632,0,0,0,4.51,4.51h.08l7.43-.14ZM49.25,18.68V11.89l8.17,8.17-6.64.13a1.536,1.536,0,0,1-1.08-.43A1.51278,1.51278,0,0,1,49.25,18.68ZM66.26,8.64V67.49a1.50216,1.50216,0,0,1-1.5,1.5h-3.5V21.52a4.47115,4.47115,0,0,0-1.32-3.18L50.93,9.33a4.47115,4.47115,0,0,0-3.18-1.32H21.74V4.5A1.498,1.498,0,0,1,23.24,3H64.76a1.498,1.498,0,0,1,1.5,1.5Z" transform="translate(-10.72998)"/><path class="cls-1" d="M53.00208,67.82H18.99139a1.49976,1.49976,0,0,0-.90832.31207,1.49143,1.49143,0,0,0,0,2.36432,1.43368,1.43368,0,0,0,.371.21051,1.45853,1.45853,0,0,0,.53735.10309H53.00208a1.495,1.495,0,0,0,0-2.99Z" transform="translate(-10.72998)"/><path class="cls-1" d="M53.00208,61.245H18.99139a1.50027,1.50027,0,0,0-.90832.31213,1.49139,1.49139,0,0,0,0,2.36432,1.43368,1.43368,0,0,0,.371.21051,1.4597,1.4597,0,0,0,.53735.103H53.00208a1.495,1.495,0,0,0,0-2.99Z" transform="translate(-10.72998)"/><path class="cls-1" d="M18.45258,54.75812a1.45057,1.45057,0,0,0-.36951.209,1.49139,1.49139,0,0,0,0,2.36432,1.43368,1.43368,0,0,0,.371.21051,1.4597,1.4597,0,0,0,.53735.103H53.00208a1.495,1.495,0,0,0,0-2.99H18.99139A1.44213,1.44213,0,0,0,18.45258,54.75812Z" transform="translate(-10.72998)"/><path class="cls-1" d="M18.454,50.98193a1.45853,1.45853,0,0,0,.53735.10309H39.46454a1.495,1.495,0,0,0,0-2.99H18.99139a1.49993,1.49993,0,0,0-.90832.31207,1.49143,1.49143,0,0,0,0,2.36432A1.4331,1.4331,0,0,0,18.454,50.98193Z" transform="translate(-10.72998)"/></svg>