<svg id="Layer_1" data-name="Layer 1" xmlns="http://www.w3.org/2000/svg" viewBox="0 0 70.39788 80.01943"><defs><style>.cls-1{fill:#fff;}</style></defs><path class="cls-1" d="M60.12086,37.63007A10.2708,10.2708,0,0,0,58.301,58.01v1.36072a17.64127,17.64127,0,1,1-35.28254.02232V56.03a5.01,5.01,0,0,0,3.43591-4.78789v-3.2516a1.53352,1.53352,0,0,1,1.14679-1.45123,21.63363,21.63363,0,0,0,15.44648-20.66v-.13911a4.74935,4.74935,0,0,0-3.632-4.60383V7.418a4.48693,4.48693,0,0,0-4.482-4.482H33.90614a4.43058,4.43058,0,1,0,0,2.988H34.9336a1.49565,1.49565,0,0,1,1.494,1.494V21.07562a4.65736,4.65736,0,0,0-2.44818,1.29767,4.87077,4.87077,0,0,0-1.40943,3.506A11.049,11.049,0,0,1,21.52065,36.928q-.10734,0-.21466-.00209A11.15286,11.15286,0,0,1,10.5216,26.92444c-.02679-.285-.03454-.56128-.04333-.82825a5.10328,5.10328,0,0,0-3.85761-4.94793V7.418a1.49565,1.49565,0,0,1,1.494-1.494H9.14219a4.43,4.43,0,1,0,0-2.988H8.1147A4.487,4.487,0,0,0,3.6326,7.418v13.8017A4.99921,4.99921,0,0,0,.00022,26.10736a22.41966,22.41966,0,0,0,.66284,5.108A21.56291,21.56291,0,0,0,15.44234,46.549,1.539,1.539,0,0,1,16.594,48.00314v3.344a4.89659,4.89659,0,0,0,3.43646,4.68658v3.337a20.62931,20.62931,0,1,0,41.25861.03519V58.10974a10.273,10.273,0,0,0-1.16816-20.47967ZM29.75319,5.8725A1.44223,1.44223,0,1,1,31.1956,4.43,1.44223,1.44223,0,0,1,29.75319,5.8725ZM13.29518,2.988a1.44223,1.44223,0,1,1-1.4425,1.442h0A1.44354,1.44354,0,0,1,13.29518,2.988ZM21.947,53.24579a1.95057,1.95057,0,0,1-2.365-1.89868v-3.344a4.50467,4.50467,0,0,0-3.29688-4.3216A18.55853,18.55853,0,0,1,3.56166,30.48926a19.364,19.364,0,0,1-.57336-4.416,2.078,2.078,0,0,1,2.05985-2.096q.01082-.0001.02163-.00008h.34869a2.12934,2.12934,0,0,1,2.07314,2.18409l-.00038.01317c.01123.34723.02288.68329.055,1.02521a14.03711,14.03711,0,0,0,28.00921-1.046q.00317-.16128.00262-.32259a1.8811,1.8811,0,0,1,.53986-1.35053,1.6787,1.6787,0,0,1,1.21289-.50335h.98626a1.76474,1.76474,0,0,1,1.76253,1.76288v.13909A18.62872,18.62872,0,0,1,26.76027,43.67182a4.49946,4.49946,0,0,0-3.294,4.31866v3.25159A2.00331,2.00331,0,0,1,21.947,53.24579Zm38.17382,1.94727a7.28748,7.28748,0,1,1,7.28724-7.28772v.00049A7.29557,7.29557,0,0,1,60.12086,55.19306Z" transform="translate(0.00041 0.00181)"/></svg>