<svg id="Layer_1" data-name="Layer 1" xmlns="http://www.w3.org/2000/svg" viewBox="0 0 80 69.79694"><defs><style>.cls-1{fill:#fff;}</style></defs><path class="cls-1" d="M72.23669,40.71341V16.67813a3.85491,3.85491,0,0,0-3.83642-3.83636H52.32336v-3.209a4.53611,4.53611,0,0,0-4.53112-4.53119H24.45007A4.53611,4.53611,0,0,0,19.919,9.63272v3.209H3.83636A3.85478,3.85478,0,0,0,0,16.67813V60.4592a6.71247,6.71247,0,0,0,.12085,1.19824c.01007.05035.01007.10071.02008.14093a6.73564,6.73564,0,0,0,5.14545,5.19574c.02008,0,.04022.01013.06036.01013a4.20748,4.20748,0,0,0,.49341.08051c.06042.01007.11072.02014.17114.03021.12085.01007.25177.01007.38263.02008.10071,0,.19135.01007.30206.01007h39.109a18.91636,18.91636,0,1,0,26.43176-26.4317ZM22.9397,9.63272a1.512,1.512,0,0,1,1.51037-1.51038H47.79224a1.512,1.512,0,0,1,1.51037,1.51038v3.209H22.9397ZM3.1416,16.67813a.70273.70273,0,0,1,.69476-.69476h64.574a.694.694,0,0,1,.68469.69476v7.21973H3.1416ZM40.29388,27.03946l-2.85,2.84943a1.66231,1.66231,0,0,1-2.34912.001l-2.85-2.8504ZM6.68591,64.00357A3.56262,3.56262,0,0,1,3.1416,60.4592V27.03946h24.832L32.959,32.02658a4.691,4.691,0,0,0,6.62073-.001l4.98615-4.98614H69.09509V38.85062a18.90965,18.90965,0,0,0-25.153,25.15295Zm54.384,7.87415a15.8783,15.8783,0,0,1-11.30774-4.73261,15.96167,15.96167,0,0,1-4.59156-11.16669A15.91948,15.91948,0,0,1,61.06989,40.079a15.73542,15.73542,0,0,1,8.0252,2.18512,15.53,15.53,0,0,1,3.1416,2.39648,15.89239,15.89239,0,0,1-11.1668,27.21711Z" transform="translate(0 -5.10153)"/><path class="cls-1" d="M69.09509,54.47806a.49055.49055,0,0,0-.12085-.01007h-6.394V46.79526a1.51041,1.51041,0,0,0-3.02081,0V57.4888h9.41479a.49055.49055,0,0,0,.12085-.01007,1.50475,1.50475,0,0,0,0-3.00067Z" transform="translate(0 -5.10153)"/></svg>