<svg id="Layer_1" data-name="Layer 1" xmlns="http://www.w3.org/2000/svg" viewBox="0 0 80 51.1449"><defs><style>.cls-1{fill:#fff;}</style></defs><path class="cls-1" d="M52.112,26.52523a1.54315,1.54315,0,0,0,1.09461-.45357l2.81717-2.81716a1.548,1.548,0,0,0-2.18923-2.18922l-2.81716,2.81716A1.54818,1.54818,0,0,0,52.112,26.52523Z" transform="translate(0.00036 -14.42755)"/><path class="cls-1" d="M55.58128,37.08935a1.54826,1.54826,0,0,0,1.54819,1.54818h3.98334a1.54818,1.54818,0,0,0,0-3.09636H57.12947A1.54826,1.54826,0,0,0,55.58128,37.08935Z" transform="translate(0.00036 -14.42755)"/><path class="cls-1" d="M39.99969,21.50776a1.54826,1.54826,0,0,0,1.54818-1.54818V15.97573a1.54818,1.54818,0,0,0-3.09636,0v3.98385A1.54826,1.54826,0,0,0,39.99969,21.50776Z" transform="translate(0.00036 -14.42755)"/><path class="cls-1" d="M18.88658,38.63753h3.98334a1.54818,1.54818,0,0,0,0-3.09636H18.88658a1.54818,1.54818,0,0,0,0,3.09636Z" transform="translate(0.00036 -14.42755)"/><path class="cls-1" d="M26.79278,26.07166A1.548,1.548,0,0,0,28.982,23.88244l-2.81717-2.81716a1.548,1.548,0,0,0-2.18922,2.18922Z" transform="translate(0.00036 -14.42755)"/><path class="cls-1" d="M72.00047,58.91608a9.12679,9.12679,0,0,0-6.39935,2.60247,9.178,9.178,0,0,0-12.79769-.00806,9.1895,9.1895,0,0,0-12.7987,0,9.1895,9.1895,0,0,0-12.7987,0,9.18558,9.18558,0,0,0-12.80071.005A9.18151,9.18151,0,0,0,.23987,63.19676a1.548,1.548,0,0,0,2.61659,1.655,6.08078,6.08078,0,0,1,10.25165-.05947,1.54631,1.54631,0,0,0,1.30023.70858h.003a1.54909,1.54909,0,0,0,1.30124-.71362,6.07,6.07,0,0,1,10.19219-.005,1.54908,1.54908,0,0,0,2.60247,0,6.07672,6.07672,0,0,1,10.19622,0,1.54816,1.54816,0,0,0,2.60147,0,6.07858,6.07858,0,0,1,10.19824,0,1.60857,1.60857,0,0,0,2.60147,0,6.06979,6.06979,0,0,1,10.19521.01008,1.54816,1.54816,0,0,0,2.60147,0,6.07115,6.07115,0,0,1,10.23855.05544,1.54844,1.54844,0,1,0,2.62264-1.647A9.11354,9.11354,0,0,0,72.00047,58.91608Z" transform="translate(0.00036 -14.42755)"/><path class="cls-1" d="M72.00047,51.1782a9.12679,9.12679,0,0,0-6.39935,2.60247,9.178,9.178,0,0,0-12.79769-.00806,9.19591,9.19591,0,0,0-12.23829-.505q-.29028.24039-.56041.506c-.18143-.17841-.37092-.34875-.56646-.511a9.22771,9.22771,0,0,0-5.83289-2.0844A9.134,9.134,0,0,0,27.206,53.77261a9.18558,9.18558,0,0,0-12.80071.005A9.18085,9.18085,0,0,0,.23987,55.45989a1.548,1.548,0,0,0,2.61659,1.655,6.0802,6.0802,0,0,1,10.25165-.06048,1.54631,1.54631,0,0,0,1.30023.70858h.003a1.54909,1.54909,0,0,0,1.30124-.71362,6.07,6.07,0,0,1,10.19219-.005,1.54908,1.54908,0,0,0,2.60247,0,6.0386,6.0386,0,0,1,5.09811-2.76979,6.11082,6.11082,0,0,1,3.8634,1.37784,6.29445,6.29445,0,0,1,1.23875,1.397,1.60815,1.60815,0,0,0,2.59441,0,6.28168,6.28168,0,0,1,1.2327-1.392,6.08906,6.08906,0,0,1,8.96856,1.38691,1.60966,1.60966,0,0,0,2.60147,0,6.06979,6.06979,0,0,1,10.19521.01008,1.54816,1.54816,0,0,0,2.60147,0,6.07058,6.07058,0,0,1,10.23855.05644,1.54844,1.54844,0,0,0,2.62264-1.64695A9.11448,9.11448,0,0,0,72.00047,51.1782Z" transform="translate(0.00036 -14.42755)"/><path class="cls-1" d="M.72065,49.85479A1.54928,1.54928,0,0,0,2.85646,49.374a6.08021,6.08021,0,0,1,10.25165-.06047,1.4338,1.4338,0,0,0,1.30326.70857,1.54908,1.54908,0,0,0,1.30124-.71361,6.07269,6.07269,0,0,1,9.96641-.33363,2.64659,2.64659,0,0,1,.19755.28323,1.5502,1.5502,0,0,0,1.31031.75393,1.50332,1.50332,0,0,0,1.32846-.72168,5.90307,5.90307,0,0,1,.46767-.62794,6.00052,6.00052,0,0,1,3.09334-1.93925,6.19885,6.19885,0,0,1,3.04093.001,5.98386,5.98386,0,0,1,3.58521,2.57728,1.60939,1.60939,0,0,0,2.60449,0,5.98609,5.98609,0,0,1,3.57815-2.57828,6.21461,6.21461,0,0,1,3.03588-.003,6.0731,6.0731,0,0,1,3.09838,1.93422,5.858,5.858,0,0,1,.47272.633,1.54811,1.54811,0,0,0,1.30527.7247h.00605a1.54679,1.54679,0,0,0,1.30426-.71462c.06652-.10281.13909-.20461.24493-.33967a6.06353,6.06353,0,0,1,9.94726.3558,1.54818,1.54818,0,0,0,2.60147,0A6.07058,6.07058,0,0,1,77.1399,49.37a1.54844,1.54844,0,0,0,2.62264-1.647,9.17074,9.17074,0,0,0-14.16142-1.68324,9.17546,9.17546,0,0,0-12.79769-.006,9.14985,9.14985,0,0,0-3.42142-2.084,11.52355,11.52355,0,0,0,2.2548-6.86,11.63715,11.63715,0,1,0-23.2743,0,11.51362,11.51362,0,0,0,2.26217,6.85758A9.03925,9.03925,0,0,0,27.207,46.03372a9.18425,9.18425,0,0,0-12.80172.003A9.18084,9.18084,0,0,0,.23987,47.719,1.5473,1.5473,0,0,0,.72065,49.85479ZM40.00479,28.54368a8.52387,8.52387,0,0,1,5.61966,14.94325,9.227,9.227,0,0,0-1.49829.2346,9.05133,9.05133,0,0,0-4.12143,2.30715,9.04559,9.04559,0,0,0-4.12445-2.30513,8.94445,8.94445,0,0,0-1.49911-.23781,8.51929,8.51929,0,0,1,5.62362-14.94206Z" transform="translate(0.00036 -14.42755)"/></svg>