<?xml version="1.0" encoding="utf-8"?>
<!-- Generator: Adobe Illustrator 27.4.0, SVG Export Plug-In . SVG Version: 6.00 Build 0)  -->
<svg version="1.1" id="Layer_1" xmlns="http://www.w3.org/2000/svg" xmlns:xlink="http://www.w3.org/1999/xlink" x="0px" y="0px"
	 viewBox="0 0 80 80" style="enable-background:new 0 0 80 80;" xml:space="preserve">
<style type="text/css">
	.st0{fill:#FFFFFF;}
</style>
<path class="st0" d="M35,78.3c0-0.2,0-0.3-0.1-0.5c-0.1-0.7-0.2-1.4-0.4-2.1c-0.1-0.3-0.2-0.7-0.2-1c-0.1-0.3-0.2-0.6-0.2-0.9
	c-0.4-1.7-0.7-3.5-1.1-5.2c-0.2-0.9-0.4-1.8-0.6-2.7c-0.5-2.2-1.2-4.2-2.2-6.2c-0.7-1.3-1.5-2.5-2.4-3.6c-1.4-1.8-3.1-3.3-5-4.6
	l-5.5-3.7c-0.9-0.6-1.9-0.9-3-0.9c-1.4,0-2.8,0.6-3.8,1.6l-0.2,0.2V29.6c0-2.4-1.7-4.5-4-5c-0.4-0.1-0.7-0.1-1.1-0.1
	c-2.8,0-5.1,2.3-5.1,5.1v24.3c0,3.1,1,6.2,2.8,8.7L4,64.2l4,5.7l5.1,7.1l1.2,1.7c0.6,0.8,1.5,1.3,2.4,1.3h1.9c3.7,0,7.4,0,11,0
	c0.7,0,1.5,0,2.2,0c0.7,0.1,1.3,0,2-0.1c0.4-0.1,0.8-0.4,1-0.7C35,78.9,35,78.6,35,78.3z M16.6,77l-4.8-6.8l-5.4-7.5l-1.3-1.8
	c-1.5-2.1-2.3-4.5-2.2-7.1V29.6c0-0.7,0.3-1.3,0.8-1.7c0.4-0.3,0.9-0.5,1.4-0.5c0.2,0,0.3,0,0.5,0c1,0.2,1.7,1.1,1.7,2.1v19.2
	c0,2.7,1,5.3,2.8,7.3c0.1,0.1,0.1,0.2,0.2,0.3c0.2,0.3,1,1.1,2,2.1c0.7,0.7,1.4,1.5,2.2,2.3c1.7,1.8,3.3,3.5,3.3,3.5
	c0.3,0.3,0.7,0.5,1.1,0.5c0.8,0,1.5-0.6,1.5-1.5c0-0.4-0.1-0.7-0.4-1c0,0-1.1-1.1-2.4-2.6c-0.7-0.7-1.5-1.6-2.2-2.3
	c-1.6-1.7-2.9-3.1-3-3.1c-0.9-1-0.9-2.6,0.1-3.6c0.5-0.5,1.1-0.8,1.8-0.8c0.5,0,1,0.1,1.4,0.4l5.5,3.7c0.8,0.6,1.6,1.2,2.3,1.8
	c1,0.9,1.9,1.9,2.7,3c1.7,2.3,2.8,4.9,3.4,7.7L31.8,77H16.6z"/>
<path class="st0" d="M45,78.3c0-0.2,0-0.3,0.1-0.5c0.1-0.7,0.2-1.4,0.4-2.1c0.1-0.3,0.2-0.7,0.2-1c0.1-0.3,0.2-0.6,0.2-0.9
	c0.4-1.7,0.7-3.5,1.1-5.2c0.2-0.9,0.4-1.8,0.6-2.7c0.5-2.2,1.2-4.2,2.2-6.2c0.7-1.3,1.5-2.5,2.4-3.6c1.4-1.8,3.1-3.3,5-4.6l5.5-3.7
	c0.9-0.6,1.9-0.9,3-0.9c1.4,0,2.8,0.6,3.8,1.6l0.2,0.2V29.6c0-2.4,1.7-4.5,4-5c0.4-0.1,0.7-0.1,1.1-0.1c2.8,0,5.1,2.3,5.1,5.1v24.3
	c0,3.1-1,6.2-2.8,8.7L76,64.2l-4,5.7L66.9,77l-1.2,1.7c-0.6,0.8-1.5,1.3-2.4,1.3h-1.9c-3.7,0-7.4,0-11,0c-0.7,0-1.5,0-2.2,0
	c-0.7,0.1-1.3,0-2-0.1c-0.4-0.1-0.8-0.4-1-0.7C45,78.9,44.9,78.6,45,78.3z M63.3,77l4.8-6.8l5.4-7.5l1.3-1.8
	c1.5-2.1,2.3-4.5,2.2-7.1V29.6c0-0.7-0.3-1.3-0.8-1.7c-0.4-0.3-0.9-0.5-1.4-0.5c-0.2,0-0.3,0-0.5,0c-1,0.2-1.7,1.1-1.7,2.1v19.2
	c0,2.7-1,5.3-2.8,7.3c-0.1,0.1-0.1,0.2-0.2,0.3c-0.2,0.3-1,1.1-2,2.1c-0.7,0.7-1.4,1.5-2.2,2.3c-1.7,1.8-3.3,3.5-3.3,3.5
	c-0.3,0.3-0.7,0.5-1.1,0.5c-0.8,0-1.5-0.6-1.5-1.5c0-0.4,0.1-0.7,0.4-1c0,0,1.1-1.1,2.4-2.6c0.7-0.7,1.5-1.6,2.2-2.3
	c1.6-1.7,2.9-3.1,3-3.1c0.9-1,0.9-2.6-0.1-3.6c-0.5-0.5-1.1-0.8-1.8-0.8c-0.5,0-1,0.1-1.4,0.4l-5.5,3.7c-0.8,0.6-1.6,1.2-2.3,1.8
	c-1,0.9-1.9,1.9-2.7,3c-1.7,2.3-2.8,4.9-3.4,7.7L48.2,77H63.3z"/>
<g>
	<path class="st0" d="M52.5,35.2c0-0.5-0.4-0.9-0.9-0.9s-0.9,0.4-0.9,0.9c0,0.5,0.4,0.9,0.9,0.9S52.5,35.7,52.5,35.2z"/>
	<path class="st0" d="M51.9,33.1h6.9c0.4,0,0.6-0.2,0.6-0.6v-3c0-0.9-0.7-1.6-1.6-1.6H53c-0.9,0-1.6,0.7-1.6,1.6v3
		C51.3,32.8,51.6,33.1,51.9,33.1z"/>
	<path class="st0" d="M55.4,21.5c-6,0-10.8,4.8-10.8,10.8s4.8,10.8,10.8,10.8s10.8-4.8,10.8-10.8S61.4,21.5,55.4,21.5z M61,36
		c0,0.9-0.6,1.5-1.5,1.5h-0.4l1.3,2.3c0.1,0.2,0,0.6-0.2,0.7c-0.2,0.1-0.6,0-0.7-0.2L58,37.5l-5.6,0l-1.6,2.8
		c-0.1,0.2-0.5,0.4-0.7,0.2c-0.2-0.1-0.4-0.5-0.2-0.7l1.3-2.3h0c-0.9,0-1.5-0.6-1.5-1.5v-6.8c0-1.7,1.3-3,3-3h1.6L53,25h-0.4
		c-0.2,0-0.4,0-0.6,0.1L50.6,26c-0.2,0.1-0.6,0.1-0.7-0.1c-0.1-0.2-0.1-0.6,0.1-0.7l1.7-1c0.1-0.1,0.4-0.1,0.6-0.1h6.2
		c0.2,0,0.4,0,0.6,0.1l1.7,1c0.2,0.1,0.4,0.5,0.1,0.7c-0.1,0.2-0.5,0.4-0.7,0.1l-1.5-0.9C58.6,25,58.4,25,58.1,25h-0.4l-1.3,1.2H58
		c1.7,0,3,1.3,3,3C61,29.2,61,36,61,36z"/>
	<circle class="st0" cx="59.1" cy="35.2" r="0.9"/>
</g>
<g>
	<path class="st0" d="M40,0c-6,0-10.8,4.8-10.8,10.8S34,21.6,40,21.6s10.8-4.8,10.8-10.8S46,0,40,0z M49.1,12.2c0,0.6-0.5,1-1,1
		h-0.6v1.3c0,0.6-0.5,1-1,1h-0.7c-0.1,0-0.2,0-0.3-0.1c-0.1,0.5-0.5,0.9-1,0.9h-0.7c-0.6,0-1-0.5-1-1v-3.1h-5.1v3c0,0.6-0.5,1-1,1
		h-0.7c-0.5,0-0.9-0.5-1-0.9c-0.1,0-0.2,0.1-0.3,0.1h-0.7c-0.6,0-1-0.5-1-1v-1.3H32c-0.6,0-1-0.5-1-1v-1.3V9.5c0-0.6,0.5-1,1-1h0.6
		V7.2c0-0.6,0.5-1,1-1h0.7c0.1,0,0.2,0,0.3,0.1c0.1-0.5,0.5-0.9,1-0.9h0.7c0.6,0,1,0.5,1,1v3h5.1v-3c0-0.6,0.5-1,1-1h0.7
		c0.5,0,0.9,0.3,1,0.9c0.1,0,0.2-0.1,0.3-0.1h0.7c0.6,0,1,0.5,1,1v1.3H48c0.6,0,1,0.5,1,1v1.3V12.2z"/>
</g>
<g>
	<path class="st0" d="M20,38.3c0,0.2,0.1,0.4,0.3,0.5c0.8,0.6,1.8,0.9,2.8,1.1c0.3,0.1,0.5-0.1,0.5-0.1c0.2-0.1,0.3-0.3,0.3-0.6V34
		l-3.7,3.7C20,37.9,19.9,38.2,20,38.3z"/>
	<path class="st0" d="M29.2,26.3c0-0.2-0.1-0.4-0.3-0.5c-0.8-0.6-1.8-0.9-2.8-1.1c0,0-0.1,0-0.1,0c-0.2,0-0.3,0.1-0.4,0.2
		c-0.2,0.1-0.3,0.3-0.3,0.6v5.3l3.7-3.7C29.2,26.6,29.3,26.4,29.2,26.3z"/>
	<path class="st0" d="M23.2,24.6c0,0-0.1,0-0.1,0c0,0,0,0,0,0c-1,0.2-1.9,0.6-2.8,1.1c-0.2,0.1-0.3,0.3-0.3,0.5c0,0.1,0,0.4,0.2,0.6
		l3.7,3.7v-5.3c0-0.2-0.1-0.4-0.3-0.6C23.5,24.7,23.4,24.6,23.2,24.6z"/>
	<path class="st0" d="M17.6,33c-0.2,0-0.4,0.1-0.6,0.3c-0.1,0.1-0.2,0.3-0.1,0.5c0,0,0,0,0,0c0.2,1,0.6,1.9,1.1,2.8
		c0.1,0.2,0.3,0.3,0.5,0.3c0.1,0,0.4,0,0.6-0.2l3.7-3.7H17.6z"/>
	<path class="st0" d="M17.6,31.6h5.3l-3.7-3.7c-0.2-0.2-0.4-0.2-0.5-0.2c0,0-0.1,0-0.1,0c-0.2,0-0.4,0.1-0.5,0.3
		c-0.6,0.8-0.9,1.8-1.1,2.8C16.9,31,17,31.2,17,31.3C17.2,31.5,17.4,31.6,17.6,31.6z"/>
	<path class="st0" d="M24.6,21.5c-6,0-10.8,4.8-10.8,10.8s4.8,10.8,10.8,10.8s10.8-4.8,10.8-10.8S30.5,21.5,24.6,21.5z M33.7,34.1
		c-0.2,1.2-0.7,2.3-1.3,3.3c-0.4,0.6-0.9,0.9-1.6,1c0,0-0.1,0-0.1,0c0,0,0,0.1,0,0.1c-0.1,0.7-0.4,1.2-1,1.6c-1,0.7-2.1,1.1-3.3,1.3
		c-0.1,0-0.3,0-0.4,0c-0.5,0-0.9-0.2-1.3-0.5c0,0,0-0.1-0.1-0.1c0,0,0,0.1-0.1,0.1c-0.4,0.3-0.8,0.5-1.3,0.5c-0.1,0-0.3,0-0.4,0
		c-1.2-0.2-2.3-0.7-3.3-1.3c-0.6-0.4-0.9-0.9-1-1.6c0,0,0-0.1,0-0.1c0,0-0.1,0-0.1,0c-0.7-0.1-1.2-0.4-1.6-1c-0.7-1-1.1-2.1-1.3-3.3
		c-0.1-0.6,0-1.2,0.4-1.7c0,0,0.1,0,0.1-0.1c0,0-0.1,0-0.1-0.1c-0.4-0.5-0.6-1.1-0.4-1.7c0.2-1.2,0.7-2.3,1.3-3.3
		c0.4-0.6,0.9-0.9,1.6-1c0,0,0.1,0,0.1,0c0,0,0-0.1,0-0.1c0.1-0.7,0.4-1.2,1-1.6c1-0.7,2.1-1.1,3.3-1.3c0.6-0.1,1.2,0,1.7,0.4
		c0,0,0,0.1,0.1,0.1c0,0,0-0.1,0.1-0.1c0.5-0.4,1.1-0.6,1.7-0.4c1.2,0.2,2.3,0.7,3.3,1.3c0.6,0.4,0.9,0.9,1,1.6c0,0,0,0.1,0,0.1
		c0,0,0.1,0,0.1,0c0.7,0.1,1.2,0.4,1.6,1c0.7,1,1.1,2.1,1.3,3.3c0.1,0.6,0,1.2-0.4,1.7c0,0-0.1,0-0.1,0.1c0,0,0.1,0,0.1,0.1
		C33.7,32.9,33.8,33.5,33.7,34.1z"/>
	<path class="st0" d="M25.3,34v5.3c0,0.2,0.1,0.4,0.3,0.6c0.1,0.1,0.3,0.2,0.5,0.1c1-0.2,1.9-0.6,2.8-1.1c0.2-0.1,0.3-0.3,0.3-0.5
		c0-0.1,0-0.4-0.2-0.6L25.3,34z"/>
	<path class="st0" d="M31.2,28c-0.1-0.2-0.3-0.3-0.5-0.3c-0.1,0-0.4,0-0.6,0.2l-3.7,3.7h5.3c0.2,0,0.4-0.1,0.6-0.3
		c0.1-0.1,0.2-0.3,0.1-0.5C32.1,29.8,31.7,28.8,31.2,28z"/>
	<path class="st0" d="M31.6,33h-5.3l3.7,3.7c0.2,0.2,0.4,0.2,0.6,0.2c0.2,0,0.4-0.1,0.5-0.3c0.6-0.8,0.9-1.8,1.1-2.8
		c0.1-0.3-0.1-0.5-0.1-0.5C32,33.1,31.8,33,31.6,33z"/>
</g>
</svg>
