<?xml version="1.0" encoding="utf-8"?>
<!-- Generator: Adobe Illustrator 24.3.0, SVG Export Plug-In . SVG Version: 6.00 Build 0)  -->
<svg version="1.1" id="Layer_1" xmlns="http://www.w3.org/2000/svg" xmlns:xlink="http://www.w3.org/1999/xlink" x="0px" y="0px"
	 viewBox="0 0 80 80" style="enable-background:new 0 0 80 80;" xml:space="preserve">
<style type="text/css">
	.st0{fill:#FFFFFF;}
</style>
<path class="st0" d="M75.5,29.6h-2.8v-5.4c0-2.5-2-4.5-4.5-4.5H65c-0.5,0-1,0.1-1.5,0.3c-0.3-2.3-2.2-4-4.5-4h-3.2
	c-2.5,0-4.5,2-4.5,4.5v13.4H28.7V20.5c0-2.5-2-4.5-4.5-4.5H21c-2.3,0-4.2,1.8-4.5,4c-0.5-0.2-1-0.3-1.5-0.3h-3.2
	c-2.5,0-4.5,2-4.5,4.5v5.4H4.5c-2.5,0-4.5,2-4.5,4.5v11.7c0,2.5,2,4.5,4.5,4.5h2.8v5.4c0,2.5,2,4.5,4.5,4.5H15c0.5,0,1-0.1,1.5-0.3
	c0.2,2.3,2.2,4,4.5,4h3.2c2.5,0,4.5-2,4.5-4.5V46.1h22.7v13.4c0,2.5,2,4.5,4.5,4.5H59c2.3,0,4.2-1.8,4.5-4c0.5,0.2,1,0.3,1.5,0.3
	h3.2c2.5,0,4.5-2,4.5-4.5v-5.4h2.8c2.5,0,4.5-2,4.5-4.5V34.1C80,31.7,78,29.6,75.5,29.6z M7.3,47.4H4.5c-0.8,0-1.5-0.7-1.5-1.5V34.1
	c0-0.8,0.7-1.5,1.5-1.5h2.8V47.4z M16.5,55.8c0,0.8-0.7,1.5-1.5,1.5h-3.2c-0.8,0-1.5-0.7-1.5-1.5V24.2c0-0.8,0.7-1.5,1.5-1.5H15
	c0.8,0,1.5,0.7,1.5,1.5V55.8z M25.7,59.5c0,0.8-0.7,1.5-1.5,1.5H21c-0.8,0-1.5-0.7-1.5-1.5V20.5c0-0.8,0.7-1.5,1.5-1.5h3.2
	c0.8,0,1.5,0.7,1.5,1.5V59.5z M28.7,43.1v-6.2h22.7v6.2H28.7z M60.5,59.5c0,0.8-0.7,1.5-1.5,1.5h-3.2c-0.8,0-1.5-0.7-1.5-1.5V20.5
	c0-0.8,0.7-1.5,1.5-1.5H59c0.8,0,1.5,0.7,1.5,1.5V59.5z M69.7,55.8c0,0.8-0.7,1.5-1.5,1.5H65c-0.8,0-1.5-0.7-1.5-1.5V24.2
	c0-0.8,0.7-1.5,1.5-1.5h3.2c0.8,0,1.5,0.7,1.5,1.5V55.8z M77,45.9c0,0.8-0.7,1.5-1.5,1.5h-2.8V32.6h2.8c0.8,0,1.5,0.7,1.5,1.5V45.9z
	"/>
</svg>
