<svg id="Layer_1" data-name="Layer 1" xmlns="http://www.w3.org/2000/svg" viewBox="0 0 79.99928 62.28003"><defs><style>.cls-1{fill:#fff;}</style></defs><path class="cls-1" d="M34.42517,51.80048a2.04443,2.04443,0,1,0,2.04394,2.04394A2.04657,2.04657,0,0,0,34.42517,51.80048Z" transform="translate(-0.00036 -8.85999)"/><path class="cls-1" d="M78.64038,45.01,68.85034,35.4V15.23a9.31992,9.31992,0,0,0-.11-1.14l-.02-.14a6.43664,6.43664,0,0,0-4.97-4.95,3.40277,3.40277,0,0,0-.46-.08l-.18-.03s-.58-.03-.64-.03h-56.09c-.07,0-.43.02-.43.02l-.23.01c-.05.00995-.32995.06-.32995.06a1.54144,1.54144,0,0,0-.3.04l-.16.04a6.46278,6.46278,0,0,0-4.8,4.93l-.01.12995a5.978,5.978,0,0,0-.12,1.14V56.95a3.68115,3.68115,0,0,0,3.66,3.66h21.11l-.14.36a13.23272,13.23272,0,0,1-.65,1.47c-.06.13-.14.27-.21.41-.2.36-.42.71-.65,1.05-.05.08-.31.44-.31.44a9.87983,9.87983,0,0,1-.82.98l-.29.29a12.006,12.006,0,0,1-1.11.98,2.04593,2.04593,0,0,0-.45.47,2.20294,2.20294,0,0,0-.26.39l-.05.12c-.05.12-.1.25-.14.38l-.03.15a1.84221,1.84221,0,0,0-.05.36l-.01.09v.12a2.31633,2.31633,0,0,0,.02.24l.1-.02-.08.16a.35592.35592,0,0,0,.03.11,1.04653,1.04653,0,0,0,.05.21l.04.11c.02.06.04.11.06.16a1.3603,1.3603,0,0,0,.11.2,2.91493,2.91493,0,0,0,.19.31l.07.07a1.45805,1.45805,0,0,0,.27.28,1.05262,1.05262,0,0,0,.12.1,2.20577,2.20577,0,0,0,.36.23l.11.06a2.9362,2.9362,0,0,0,.52.19,2.89335,2.89335,0,0,0,.56.06h24.59a2.39436,2.39436,0,0,0,.63-.09,2.46683,2.46683,0,0,0,.46-.16l.1-.06a2.83461,2.83461,0,0,0,.34-.22.52607.52607,0,0,0,.14-.11c.09-.09.18-.18.3-.32l.09-.09c.03-.05.06-.11.1-.18l.06-.11a.59726.59726,0,0,0,.09-.15c.03-.06994.05-.12994.12-.35a1.23456,1.23456,0,0,0,.04-.16.793.793,0,0,0,.02-.17,2.60328,2.60328,0,0,0,.04-.38l-.01-.1a2.3247,2.3247,0,0,0-.05-.38l-.03-.16a2.42778,2.42778,0,0,0-.13-.38l-.06006-.13a4.626,4.626,0,0,0-.31-.46,2.547,2.547,0,0,0-.41-.39,12.35145,12.35145,0,0,1-1.11-.99l-.27-.27c-.28-.3-.54-.62-.83-.99005l-.32-.44c-.22-.34-.43-.68994-.62994-1.04-.08-.15-.15-.29-.22-.42a13.46244,13.46244,0,0,1-.66-1.48l-.13-.35H52.0133V67.5993a3.54134,3.54134,0,0,0,3.53711,3.53711h3.60993V71.14h11.46v-.0036h3.6029a3.54133,3.54133,0,0,0,3.53711-3.53711V52.12a4.528,4.528,0,0,0,.88-7.11Zm-75.63-29.78a3.39755,3.39755,0,0,1,3.37-3.37h56.09a3.391,3.391,0,0,1,3.37006,3.37l.02,18.2a4.49762,4.49762,0,0,0-4.13,1.17l-10.59,10.41a4.40351,4.40351,0,0,0-1.21,2.07h-46.92Zm41.97,52.47.44.44h-21.98l.44-.44a15.10607,15.10607,0,0,0,1.28-1.49,16.52882,16.52882,0,0,0,1.79-3l.05-.11a20.92806,20.92806,0,0,0,.86-2.3l.05-.19h13.03l.06.19a16.875,16.875,0,0,0,.9,2.4l.1.21a15.3807,15.3807,0,0,0,1.7,2.8A12.75343,12.75343,0,0,0,44.98034,67.7Zm7.033-10.09H3.66034a.65726.65726,0,0,1-.65-.66V50.08h47.18a4.47215,4.47215,0,0,0,1.82,2.04l.00293.0014ZM67.62036,68.13641h-5.46V61.27a1.498,1.498,0,0,1,1.5-1.5h2.46a1.50439,1.50439,0,0,1,1.5,1.5Zm7.14-.53711a.53806.53806,0,0,1-.53711.53711h-3.6029V61.27a4.50677,4.50677,0,0,0-4.5-4.5h-2.46a4.50676,4.50676,0,0,0-4.5,4.5v6.86639H55.55041a.53806.53806,0,0,1-.53711-.53711V52.72H74.76037Zm2.12-18.80932a1.47659,1.47659,0,0,1-1.39.93h-21.2a1.41218,1.41218,0,0,1-1.18-.57.54967.54967,0,0,0-.06-.07995,2.06174,2.06174,0,0,1-.15-.28,1.47087,1.47087,0,0,1,.31-1.61l.03-.03.07-.06994,10.53-10.34a1.48254,1.48254,0,0,1,2.02-.06l.08.08,2.81,2.74.1.1,7.69,7.55A1.46817,1.46817,0,0,1,76.88037,48.79Z" transform="translate(-0.00036 -8.85999)"/></svg>