<svg id="Layer_1" data-name="Layer 1" xmlns="http://www.w3.org/2000/svg" viewBox="0 0 80 78.33973"><defs><style>.cls-1{fill:#fff;}</style></defs><path class="cls-1" d="M78.787,25.9593a4.88535,4.88535,0,0,0-3.677-1.66022H68.61207V9.10807l5.66982-5.66982a1.5277,1.5277,0,0,0-2.1605-2.1605l-6.565,6.56406V24.29908H45.77489a4.881,4.881,0,0,0-4.84844,5.52067l.76394,5.90774a14.6875,14.6875,0,0,0-3.08633-.31575H20.33084A15.44484,15.44484,0,0,0,4.89936,50.63949H4.5836A4.59049,4.59049,0,0,0,0,55.22309v4.13542a4.59053,4.59053,0,0,0,4.5836,4.5836h.31576A15.44483,15.44483,0,0,0,20.33084,79.16986H38.60406a15.35743,15.35743,0,0,0,8.6885-2.67886,4.88416,4.88416,0,0,0,4.34935,2.67886h17.601a4.90662,4.90662,0,0,0,4.84844-4.25771l5.867-45.0924A4.89418,4.89418,0,0,0,78.787,25.9593ZM20.33084,38.46747H38.60406a12.11419,12.11419,0,0,1,3.51411.50929A12.37459,12.37459,0,0,1,50.99,50.63949H7.9449A12.396,12.396,0,0,1,20.33084,38.46747Zm1.39432,15.22775-2.352,2.35248a1.52852,1.52852,0,0,1-2.15851,0L14.8622,53.69522Zm-16.836,7.19116H4.5836a1.5258,1.5258,0,0,1-1.52787-1.52787V55.22309A1.5258,1.5258,0,0,1,4.5836,53.69522h5.9576l4.513,4.513a4.58673,4.58673,0,0,0,6.4795,0l4.512-4.513H54.3513a1.5258,1.5258,0,0,1,1.52787,1.52787v4.13542a1.5258,1.5258,0,0,1-1.52787,1.52787H4.88916ZM46.56935,73.201a12.28384,12.28384,0,0,1-7.96529,2.91318H20.33084A12.396,12.396,0,0,1,7.9449,63.94211H50.99A12.37306,12.37306,0,0,1,46.56935,73.201Zm30.3638-43.77846L71.056,74.515a1.82594,1.82594,0,0,1-1.8131,1.59917h-17.601a1.82591,1.82591,0,0,1-1.8131-1.59917l-.02039-.17321a15.36426,15.36426,0,0,0,4.22712-10.39964h.31576a4.59053,4.59053,0,0,0,4.5836-4.5836V55.22309a4.59049,4.59049,0,0,0-4.5836-4.5836h-.31576a15.44289,15.44289,0,0,0-9.12648-13.88322l-.95746-7.33378a1.83824,1.83824,0,0,1,.44817-1.44636,1.8011,1.8011,0,0,1,1.37512-.62132h29.335a1.80085,1.80085,0,0,1,1.37506.62132A1.83794,1.83794,0,0,1,76.93315,29.42249Z" transform="translate(0 -0.83014)"/></svg>