<svg id="Capa_1" data-name="Capa 1" xmlns="http://www.w3.org/2000/svg" viewBox="0 0 512.09998 442.10001"><defs><style>.cls-1{fill:#fff;}</style></defs><path class="cls-1" d="M341.693,38.841H74.16a7.5,7.5,0,0,0,0,15H341.694a7.5,7.5,0,0,0-.001-15Z" transform="translate(-2.5 -2.5)"/><circle class="cls-1" cx="434.22762" cy="43.84102" r="8.61237"/><circle class="cls-1" cx="402.17879" cy="43.84102" r="8.61237"/><circle class="cls-1" cx="370.12995" cy="43.84102" r="8.61237"/><path class="cls-1" d="M487.2,2.5H29.8A27.39968,27.39968,0,0,0,2.5,29.8V428a16.55911,16.55911,0,0,0,16.6,16.6H498A16.62293,16.62293,0,0,0,514.6,428V29.8A27.48563,27.48563,0,0,0,487.2,2.5ZM499.5,428a1.57955,1.57955,0,0,1-1.6,1.6H19.1a1.57954,1.57954,0,0,1-1.6-1.6V92.4c106.3-.3,255-.4,363.6,0H394a4.86884,4.86884,0,0,0,1.2-.1h1.5c5,0,10-.1,15-.1,29.1-.1,58.1-.1,87.8.1Zm0-350.7c-38.7-.3-76.2-.3-114.3,0-109-.4-260.1-.4-367.7,0V29.8A12.29118,12.29118,0,0,1,29.8,17.5H487.1a12.29118,12.29118,0,0,1,12.3,12.3V77.3Z" transform="translate(-2.5 -2.5)"/><path class="cls-1" d="M366.3,258.1a82.35412,82.35412,0,1,0-74.2,46.6,80.3144,80.3144,0,0,0,36-8.3l73.7,73.7a27.03928,27.03928,0,0,0,38.2,0h0a27.03928,27.03928,0,0,0,0-38.2Zm-48.8,27.6a68.56566,68.56566,0,1,1,38.2-38.3,76.78015,76.78015,0,0,1-6.8,13,71.82294,71.82294,0,0,1-8.3,10.1,66.53316,66.53316,0,0,1-10.1,8.3A70.70193,70.70193,0,0,1,317.5,285.7Zm112.6,74.5a12.97653,12.97653,0,0,1-18.4,0L340.5,289a79.41808,79.41808,0,0,0,9.9-8.5,98.84283,98.84283,0,0,0,8.5-9.9l71.2,71.2a12.77134,12.77134,0,0,1,3.8,9.2A13.37166,13.37166,0,0,1,430.1,360.2Z" transform="translate(-2.5 -2.5)"/><path class="cls-1" d="M76.6,335.1H212a7.5,7.5,0,0,0,0-15H76.6a7.5,7.5,0,0,0,0,15Z" transform="translate(-2.5 -2.5)"/><path class="cls-1" d="M294,363H76.6a7.5,7.5,0,0,0,0,15H294a7.5,7.5,0,0,0,0-15Z" transform="translate(-2.5 -2.5)"/><path class="cls-1" d="M76.6,249.3h79.2a7.5,7.5,0,1,0,0-15H76.6a7.5,7.5,0,1,0,0,15Z" transform="translate(-2.5 -2.5)"/><path class="cls-1" d="M76.6,292.2h79.2a7.5,7.5,0,0,0,0-15H76.6a7.5,7.5,0,0,0,0,15Z" transform="translate(-2.5 -2.5)"/></svg>