<?xml version="1.0" encoding="utf-8"?>
<!-- Generator: Adobe Illustrator 23.1.0, SVG Export Plug-In . SVG Version: 6.00 Build 0)  -->
<svg version="1.1" id="Layer_1" xmlns="http://www.w3.org/2000/svg" xmlns:xlink="http://www.w3.org/1999/xlink" x="0px" y="0px"
	 viewBox="0 0 512 512" style="enable-background:new 0 0 512 512;" xml:space="preserve">
<style type="text/css">
	.st0{fill:url(#SVGID_1_);}
</style>
<linearGradient id="SVGID_1_" gradientUnits="userSpaceOnUse" x1="0" y1="255.999" x2="511.998" y2="255.999">
	<stop  offset="0" style="stop-color:#189EAD"/>
	<stop  offset="0.5698" style="stop-color:#158693"/>
	<stop  offset="1" style="stop-color:#12697A"/>
</linearGradient>
<path class="st0" d="M481.1,27.9H30.9C13.9,27.9,0,41.8,0,58.8v310.8c0,17,13.9,30.9,30.9,30.9h154.3v22.5
	c0,20.6-16.8,37.4-37.4,37.4h-34c-6.5,0-11.8,5.3-11.8,11.8s5.3,11.8,11.8,11.8h284.4c6.5,0,11.8-5.3,11.8-11.8s-5.3-11.8-11.8-11.8
	h-34c-20.6,0-37.4-16.8-37.4-37.4v-22.5h154.3c17,0,30.9-13.9,30.9-30.9V58.8C512,41.8,498.1,27.9,481.1,27.9z M195.9,460.5
	c8-10.3,12.9-23.3,12.9-37.4v-22.5h94.4v22.5c0,14.1,4.8,27.1,12.9,37.4H195.9z M488.4,369.7c0,4-3.3,7.3-7.3,7.3H30.9
	c-4,0-7.3-3.3-7.3-7.3v-62h464.8V369.7z M488.4,284H23.6V58.8c0-4,3.3-7.3,7.3-7.3h450.2c4,0,7.3,3.3,7.3,7.3L488.4,284L488.4,284z
	 M256,329.6c7,0,12.7,5.7,12.7,12.7S263,355,256,355s-12.7-5.7-12.7-12.7S249,329.6,256,329.6z"/>
</svg>
