<?xml version="1.0" encoding="utf-8"?>
<!-- Generator: Adobe Illustrator 25.2.1, SVG Export Plug-In . SVG Version: 6.00 Build 0)  -->
<svg version="1.1" id="Capa_1" xmlns="http://www.w3.org/2000/svg" xmlns:xlink="http://www.w3.org/1999/xlink" x="0px" y="0px"
	 viewBox="0 0 512.1 442.1" style="enable-background:new 0 0 512.1 442.1;" xml:space="preserve">
<style type="text/css">
	.st0{fill:#FFFFFF;}
</style>
<path class="st0" d="M431.6,103.6c16.2-15.5,20.6-39.7,10.8-59.8s-31.5-31.7-53.7-28.5c-22.2,3.2-39.8,20.3-43.5,42.4
	c-3.7,22.1,7.2,44.1,27.1,54.4c-8.3,6.9-13.1,17.1-13.1,27.9V199h-22.1v-58.9c0-26.1-19.5-48.1-45.5-51.2
	c15.3-14.5,20.1-36.9,12.3-56.5C296.1,12.8,277.1,0,256,0s-40,12.8-47.9,32.4c-7.8,19.6-3,41.9,12.3,56.5
	C194.6,92,175.1,114,175,140.1V199h-22.1v-58.9c0-10.8-4.8-21-13.1-27.9c19.9-10.3,30.9-32.3,27.1-54.4
	c-3.7-22.1-21.3-39.3-43.5-42.4c-22.2-3.2-43.9,8.3-53.7,28.5s-5.4,44.4,10.8,59.8c-25.9,3.1-45.4,25.1-45.5,51.2v110.5
	c0,19.9,11.5,38,29.5,46.5v122.9c0,4.1,3.3,7.4,7.4,7.4h0c4.1,0,7.4-3.3,7.4-7.4V316.3c2.4,0.3,51.6,0.6,51.6,0.6
	c4.1,0,7.4,3.3,7.4,7.4v110.5c0,4.1,3.3,7.4,7.4,7.4h44.2c4.1,0,7.4-3.3,7.4-7.4V302.1h51.6V420c0,4.1-3.3,7.4-7.4,7.4h-14.7
	c-4.1,0-7.4,3.3-7.4,7.4v0c0,4.1,3.3,7.4,7.4,7.4h58.9c4.1,0,7.4-3.3,7.4-7.4v0c0-4.1-3.3-7.4-7.4-7.4h-14.7c-4.1,0-7.4-3.3-7.4-7.4
	V302.1H315v132.6c0,4.1,3.3,7.4,7.4,7.4h44.2c4.1,0,7.4-3.3,7.4-7.4V324.2c0-4.1,3.3-7.4,7.4-7.4c0,0,49.1-0.2,51.6-0.6v118.5
	c0,4.1,3.3,7.4,7.4,7.4l0,0c4.1,0,7.4-3.3,7.4-7.4V311.8c18-8.5,29.4-26.6,29.5-46.5V154.8C477,128.7,457.5,106.7,431.6,103.6z
	 M359.2,66.4c0-20.3,16.5-36.8,36.8-36.8s36.8,16.5,36.8,36.8s-16.5,36.8-36.8,36.8C375.7,103.2,359.2,86.7,359.2,66.4z
	 M271.8,103.2l-13.2,19.9c-1.2,1.8-3.8,1.8-4.9,0l-13.2-19.9H271.8z M219.2,51.7c0-20.3,16.5-36.8,36.8-36.8s36.8,16.5,36.8,36.8
	S276.4,88.5,256,88.5C235.7,88.5,219.2,72,219.2,51.7z M189.7,140.1c0.1-18.9,14.4-34.6,33.2-36.5l21,31.4c5.8,8.7,18.6,8.7,24.4,0
	l21-31.4c18.8,1.8,33.1,17.6,33.2,36.5V199h0c-16.3,0-29.5,13.2-29.5,29.5v14.7h-73.7v-14.7c0-16.3-13.2-29.5-29.5-29.5h0V140.1z
	 M79.2,66.4c0-20.3,16.5-36.8,36.8-36.8s36.8,16.5,36.8,36.8s-16.5,36.8-36.8,36.8C95.7,103.2,79.3,86.7,79.2,66.4z M180.3,427.4
	H155c-1.2,0-2.1-1-2.1-2.1v-101c0-12.2-9.9-22.1-22.1-22.1H86.6c-20.3,0-36.8-16.5-36.8-36.8V154.8c0-20.3,16.5-36.8,36.8-36.8h29.5
	c12.2,0,22.1,9.9,22.1,22.1V199c0,8.1,6.6,14.7,14.7,14.7h36.8c8.1,0,14.7,6.6,14.7,14.7v0c0,8.1-6.6,14.7-14.7,14.7h-73.7
	c-4.1,0-7.4-3.3-7.4-7.4v-81c0-4.1-3.3-7.4-7.4-7.4h0c-4.1,0-7.4,3.3-7.4,7.4v81c0,12.2,9.9,22.1,22.1,22.1h29.5
	c20.3,0,36.8,16.5,36.8,36.8v130.5C182.4,426.4,181.4,427.4,180.3,427.4z M196.5,287.4c-1.6-11.2-6.9-21.6-15-29.5h149
	c-8.1,7.9-13.3,18.3-15,29.5H196.5z M462.3,265.3c0,20.3-16.5,36.8-36.8,36.8h-44.2c-12.2,0-22.1,9.9-22.1,22.1v101
	c0,1.2-1,2.1-2.1,2.1h-25.2c-1.2,0-2.1-1-2.1-2.1V294.8c0-20.3,16.5-36.8,36.8-36.8H396c12.2,0,22.1-9.9,22.1-22.1v-81
	c0-4.1-3.3-7.4-7.4-7.4h0c-4.1,0-7.4,3.3-7.4,7.4v81c0,4.1-3.3,7.4-7.4,7.4h-73.7c-8.1,0-14.7-6.6-14.7-14.7v0
	c0-8.1,6.6-14.7,14.7-14.7h36.8c8.1,0,14.7-6.6,14.7-14.7v-58.9c0-12.2,9.9-22.1,22.1-22.1h29.5c20.3,0,36.8,16.5,36.8,36.8V265.3z"
	/>
</svg>
