<svg id="Capa_1" data-name="Capa 1" xmlns="http://www.w3.org/2000/svg" viewBox="0 0 548.7398 438.9038"><defs><style>.cls-1{fill:#fff;}</style></defs><path class="cls-1" d="M389.67,441.3037a23.49,23.49,0,0,1-23.2978-23.3115v-84.41h-83.68l2.0683,5.545c4.0538,10.874,12.0323,26.2275,27.0293,37.6113a14.2192,14.2192,0,0,1,5.5508,11.1943,14.06,14.06,0,0,1-14.0449,14.0381H143.6782a14.05,14.05,0,0,1-8.5053-25.2353c12.1508-9.2129,21.2514-21.8731,27.0468-37.627l2.0323-5.5273H23.7354A21.519,21.519,0,0,1,2.4,312.2324V41.394A39.3367,39.3367,0,0,1,41.4111,2.4H405.5752A39.3381,39.3381,0,0,1,444.57,41.4106v95.9053h83.2608A23.32,23.32,0,0,1,551.14,160.6118V418.0049a23.5081,23.5081,0,0,1-23.3242,23.2988Zm-8.4472-23.2988a8.5177,8.5177,0,0,0,8.4257,8.4492H527.8311a8.5751,8.5751,0,0,0,8.4589-8.4082l.001-45.4414H381.2227Zm-202.74-81.4727c-3.5254,11.9785-10.76,29.3-25.207,43.79l-6.9907,7.0088h154.4l-6.9921-7.01c-14.4258-14.4688-21.6758-31.8008-25.2178-43.793l-.8687-2.9463H179.3511Zm211.17-184.3657a8.5042,8.5042,0,0,0-8.4306,8.43v197.16H536.291V160.6138a8.5121,8.5121,0,0,0-8.4433-8.4473ZM17.042,312.2471a6.7335,6.7335,0,0,0,6.6777,6.6943H366.3721V265.2148H17.042ZM41.3774,17.0415A24.5453,24.5453,0,0,0,17.042,41.3774V250.5732h349.33V160.6138a23.5105,23.5105,0,0,1,23.3144-23.2979H429.918V41.394a24.5346,24.5346,0,0,0-24.3272-24.3525Z" transform="translate(-2.3999 -2.3999)"/><path class="cls-1" d="M446.2549,406.9541a7.4248,7.4248,0,0,1,.0029-14.85h24.9951a7.4248,7.4248,0,0,1,0,14.85Z" transform="translate(-2.3999 -2.3999)"/><path class="cls-1" d="M223.4873,302.3037A10.2256,10.2256,0,1,1,233.71,292.0771,10.2576,10.2576,0,0,1,223.4873,302.3037Z" transform="translate(-2.3999 -2.3999)"/></svg>