<svg id="Capa_1" data-name="Capa 1" xmlns="http://www.w3.org/2000/svg" viewBox="0 0 512 442.05005"><defs><style>.cls-1{fill:#fff;}</style></defs><path class="cls-1" d="M484.66.0036H27.34A27.365,27.365,0,0,0,0,27.34363v398.15a16.58247,16.58247,0,0,0,16.57,16.56H495.43a16.58459,16.58459,0,0,0,16.57-16.57v-398.14A27.365,27.365,0,0,0,484.66.0036Zm12.34,425.48a1.5663,1.5663,0,0,1-1.57,1.57H16.57a1.56418,1.56418,0,0,1-1.57-1.56v-335.6c106.26-.35,254.97-.36,363.59-.02.26.02.52.04.77.04h.08c1.09-.01,2.17-.02,3.26-.03,2.94.01,5.86.02,8.74.03h.03a7.42734,7.42734,0,0,0,1.24-.11c34.65-.26,68.97-.24005,104.29.05Zm0-350.63c-38.72-.32-76.24-.31-114.3.03-108.97-.35-260.1-.34-367.7.01v-47.55a12.35957,12.35957,0,0,1,12.34-12.34H484.66a12.34458,12.34458,0,0,1,12.34,12.33Z" transform="translate(0 -0.0036)"/><path class="cls-1" d="M341.693,38.841H74.16a7.5,7.5,0,0,0,0,15H341.694a7.5,7.5,0,0,0-.001-15Z" transform="translate(0 -0.0036)"/><circle class="cls-1" cx="436.72762" cy="46.341" r="8.61236" transform="translate(226.78552 432.08708) rotate(-67.49997)"/><circle class="cls-1" cx="404.67877" cy="46.3374" r="8.61237"/><circle class="cls-1" cx="372.62994" cy="46.3374" r="8.61237"/><path class="cls-1" d="M252.46173,208.50616a7.55454,7.55454,0,0,0-10.24518,2.74518l-39.6,68.58918-.00263.00518-13.57037,23.50452a7.5,7.5,0,0,0,12.99042,7.5l39.6-68.58923.00275-.00544,13.57019-23.50421A7.55454,7.55454,0,0,0,252.46173,208.50616Z" transform="translate(0 -0.0036)"/><path class="cls-1" d="M127.69092,258.43774l43.34552-43.34552a7.5,7.5,0,0,0-10.60663-10.60656l-48.66266,48.66266a7.55458,7.55458,0,0,0,0,10.60662c.09082.09082.18872.17029.28314.25537l48.39948,48.39948a7.5,7.5,0,0,0,10.60657-10.60657Z" transform="translate(0 -0.0036)"/><path class="cls-1" d="M351.57019,204.48566a7.5,7.5,0,0,0-10.60663,10.60656l43.34552,43.34552-43.36542,43.36548a7.5,7.5,0,0,0,10.60657,10.60657l48.39948-48.39948c.09442-.08508.19232-.16455.28314-.25537a7.55458,7.55458,0,0,0,0-10.60662Z" transform="translate(0 -0.0036)"/><circle class="cls-1" cx="315.33282" cy="305.9682" r="8.61237"/><circle class="cls-1" cx="283.28395" cy="305.9718" r="8.61236" transform="translate(-107.80527 450.59793) rotate(-67.49997)"/><circle class="cls-1" cx="251.23511" cy="305.9682" r="8.61237"/></svg>