<svg id="Layer_1" data-name="Layer 1" xmlns="http://www.w3.org/2000/svg" viewBox="0 0 745.5 574.52629"><defs><style>.cls-1{fill:#fff;}</style></defs><path class="cls-1" d="M715.66016,85.95H238.75v20H715.66016A9.85841,9.85841,0,0,1,725.5,115.79V503.17993a9.84984,9.84984,0,0,1-9.83984,9.83008H668.61011A20.02559,20.02559,0,0,0,654.27,519.07007L640.71021,533.01l-17.87012,18.37a10.94861,10.94861,0,0,1-15.52,0l-18.05982-18.37-13.79-14.02a20.02114,20.02114,0,0,0-14.26-5.98H29.84009A9.87811,9.87811,0,0,1,20,503.16992V115.79A9.87819,9.87819,0,0,1,29.84009,105.95h53.2v-20H29.84009A29.92411,29.92411,0,0,0,0,115.79V503.16992A29.924,29.924,0,0,0,29.84009,533.01h522.97a19.99868,19.99868,0,0,1,14.23,5.95L593.26025,565.52a30.94722,30.94722,0,0,0,43.72-.07007L662.88013,539.02a20.002,20.002,0,0,1,14.29-6.01h38.49A29.90862,29.90862,0,0,0,745.5,503.17993V115.79A29.91081,29.91081,0,0,0,715.66016,85.95ZM8.99023,253.48h-3.02v-.08h3.02ZM134.6001,85.95v20h47.3501v-20Z"/><path class="cls-1" d="M76.65806,233.57172H407.044a10,10,0,0,0-.001-20H76.65806a10,10,0,0,0,0,20Z"/><path class="cls-1" d="M136.99023,54.97h-16.73a2.00441,2.00441,0,0,1-1.9602-2.4l7.64014-38.21A11.99948,11.99948,0,0,0,114.17017,0h-25.22a12.00126,12.00126,0,0,0-11.76,9.65l-9.24,46.15a63.09308,63.09308,0,0,0-1.21,12.11l-.03,18.03992-.02,20-.03,19.3501a12.001,12.001,0,0,0,12,12.02h58.33007a12.00325,12.00325,0,0,0,12-12V66.97A11.99679,11.99679,0,0,0,136.99023,54.97Zm-4.39013,63.94989a1.99931,1.99931,0,0,1-2,2H85.04a1.99311,1.99311,0,0,1-2-2V67.28a33.29769,33.29769,0,0,1,.64014-6.53l8.55-42.75a1.98564,1.98564,0,0,1,1.96-1.6h12.17993a1.99615,1.99615,0,0,1,1.96,2.39l-7.63989,38.22a11.99532,11.99532,0,0,0,11.77,14.35H130.6001a2.00583,2.00583,0,0,1,2,2Z"/><path class="cls-1" d="M235.91016,54.97h-16.74a2.00438,2.00438,0,0,1-1.96-2.4l7.6499-38.21A12.00941,12.00941,0,0,0,213.09009,0h-25.22a12.0123,12.0123,0,0,0-11.77,9.65l-9.23,46.15a62.32426,62.32426,0,0,0-1.21,12.11l-.03,18.03992-.03,20-.03,19.3501a12.00753,12.00753,0,0,0,12,12.02h58.34009a12.00326,12.00326,0,0,0,12-12V66.97A11.9968,11.9968,0,0,0,235.91016,54.97ZM231.52,118.91992a1.99931,1.99931,0,0,1-2,2H183.9502a1.99931,1.99931,0,0,1-2-2V67.28a33.32679,33.32679,0,0,1,.6499-6.53l8.54-42.75a2.00182,2.00182,0,0,1,1.96-1.6H205.29a1.99615,1.99615,0,0,1,1.96,2.39l-7.63989,38.22a11.99364,11.99364,0,0,0,11.76,14.35H229.52a2.00583,2.00583,0,0,1,2,2Z"/><path class="cls-1" d="M76.65783,233.57172h330.386a10,10,0,0,0-.001-20H76.65783a10,10,0,0,0,0,20Z"/><path class="cls-1" d="M76.65783,318.45176h330.386a10,10,0,1,0-.001-20H76.65783a10,10,0,1,0,0,20Z"/><path class="cls-1" d="M76.65783,403.61645h330.386a10,10,0,1,0-.001-20H76.65783a10,10,0,1,0,0,20Z"/><path class="cls-1" d="M678.75481,305.33377l-.17756-11.12217-.06821-.39425a15.88073,15.88073,0,0,0-15.67458-13.18771l-17.01782.011-17.062-.011a15.75354,15.75354,0,0,0-11.21046,4.64469q-.44691.44692-.8547.92393l-25.921-24.60583a43.91924,43.91924,0,0,1-12.68111-23.04488l-.83464-7.74249c-.003-.24577-.003-.49556-.003-.74034a21.63638,21.63638,0,0,0-42.76525-4.6808l-2.25814,10.25844-.11837.48052v.55877a10.96137,10.96137,0,0,1-.2518,1.09446c-.13443.51864-.28691,1.1055-.39926,1.75455-.25682,1.51981-.45344,2.846-.59689,4.02674a90.91544,90.91544,0,0,0,.07724,22.772c.38221,2.98243.90687,6.018,1.55793,9.00748.01806.08929.03712.17757.05718.26585l-8.00331-.004v-.017l-31.09635-.01706a23.43207,23.43207,0,0,0-15.99459,40.55527,23.45177,23.45177,0,0,0,3.76491,28.16508q.29042.29192.58987.57281a23.41285,23.41285,0,0,0,4.35477,28.71481,23.44977,23.44977,0,0,0,20.35538,35.05989l14.51992.008,9.8331.01706,51.58214.05216a30.537,30.537,0,0,0,20.75765-8.07955,12.50142,12.50142,0,0,1,8.4748-3.29543l1.72646.002a15.99452,15.99452,0,0,0,9.18,10.21431,15.904,15.904,0,0,0,6.06619,1.20079l4.02172.004v.02608l12.84362-.012,8.27216.008,5.14026-.012v-.01l4.0167-.004a15.92722,15.92722,0,0,0,6.08224-1.20481,15.92946,15.92946,0,0,0,9.802-14.7045Zm-18.07717,85.25865-14.859.01605-14.87-.01605.09931-91.80234,14.7657-.005,14.7657.005Zm-78.20634-.05317-75.94519-.07724a5.28143,5.28143,0,0,1-5.26766-5.28572,5.297,5.297,0,0,1,5.2807-5.26866l18.10614.009,2.208.008A9.08774,9.08774,0,0,0,535.938,370.84a9.09033,9.09033,0,0,0-9.07069-9.08574l-24.687-.017a5.27669,5.27669,0,1,1,.006-10.55338l20.3061.008a9.07658,9.07658,0,0,0,9.08473-9.05564,9.073,9.073,0,0,0-9.07068-9.1058l-24.694-.017a5.15453,5.15453,0,0,1-3.72478-1.55994,5.26866,5.26866,0,0,1,3.73782-8.99444l20.3051.009a9.08411,9.08411,0,0,0,.64-18.14639l-.12138-.02407h-.0632l-1.16368-.18258-.38623.18157-23.57543-.01605a5.27268,5.27268,0,1,1,.013-10.54535l50.49871.04214a9.09159,9.09159,0,0,0,9.08573-9.07671,8.84864,8.84864,0,0,0-.08828-1.23591c-.003-.02608-.007-.05217-.011-.07825l-.004-.45143-.19462-.56177-2.60825-11.2235a71.96011,71.96011,0,0,1-.18458-31.607l2.25613-10.2434a3.54566,3.54566,0,0,1,3.39775-2.72261,3.46447,3.46447,0,0,1,3.45794,3.474,60.28732,60.28732,0,0,0,.49857,7.78763c.01906.22371.04916.44641.08828.67313A61.89584,61.89584,0,0,0,578.261,274.7671L612.86944,307.62l-.07123,71.54627-1.09245-.002a30.63733,30.63733,0,0,0-20.77772,8.08858A12.4267,12.4267,0,0,1,582.4713,390.53925Z"/></svg>