<svg id="Capa_1" data-name="Capa 1" xmlns="http://www.w3.org/2000/svg" viewBox="0 0 517.00009 447.06"><path d="M165.34882,207.39294a9.99935,9.99935,0,0,0-14.14118-.01361l-.01214.01215-46.37989,46.37939a10.01084,10.01084,0,0,0,0,14.14161l46.37989,46.37988A9.99911,9.99911,0,1,0,165.352,300.16711l-.01538-.01538-39.30855-39.30957,39.30713-39.30761A10.01173,10.01173,0,0,0,165.34882,207.39294Z" transform="translate(0.00004 0)"/><path d="M365.79906,207.39148a9.99945,9.99945,0,0,0-14.1416,14.14111L390.967,260.84216l-39.30664,39.30567a9.99964,9.99964,0,1,0,14.11178,14.17141l.02689-.02688,46.37988-46.37891a9.99869,9.99869,0,0,0,.00226-14.1403l-.00226-.00228Z" transform="translate(0.00004 0)"/><path d="M248.57391,211.8031a9.99544,9.99544,0,0,0-13.52737,4.10219l-.00436.00816-46.252,86.59863a10.00235,10.00235,0,0,0,8.81445,14.7129h.00049a9.9888,9.9888,0,0,0,8.82715-5.29l46.252-86.59961A10.01247,10.01247,0,0,0,248.57391,211.8031Z" transform="translate(0.00004 0)"/><path d="M255.54906,295.02185a10.0124,10.0124,0,0,0-10,10v1.05176a10,10,0,0,0,20,0v-1.05078A10.01072,10.01072,0,0,0,255.54906,295.02185Z" transform="translate(0.00004 0)"/><path d="M289.52263,295.02283a10.01177,10.01177,0,0,0-10,10v1.05175a10,10,0,0,0,20,0v-1.05175A10.01177,10.01177,0,0,0,289.52263,295.02283Z" transform="translate(0.00004 0)"/><path d="M323.49626,295.02283a10.01177,10.01177,0,0,0-10,10v1.05175a10,10,0,1,0,20,0v-1.05175A10.01177,10.01177,0,0,0,323.49626,295.02283Z" transform="translate(0.00004 0)"/><path d="M344.19335,42.58764H76.66015a10,10,0,0,0,0,20H344.19432a10,10,0,0,0-.001-20Z" transform="translate(0.00004 0)"/><path d="M380.46483,40.5515a10.01147,10.01147,0,0,0-10,10v1.30323a10,10,0,1,0,20,0V50.5515A10.01147,10.01147,0,0,0,380.46483,40.5515Z" transform="translate(0.00004 0)"/><path d="M410.40233,40.5515a10.01147,10.01147,0,0,0-10,10v1.30323a10,10,0,1,0,20,0V50.5515A10.01147,10.01147,0,0,0,410.40233,40.5515Z" transform="translate(0.00004 0)"/><path d="M440.33983,40.5515a10.01147,10.01147,0,0,0-10,10v1.30323a10,10,0,1,0,20,0V50.5515A10.01147,10.01147,0,0,0,440.33983,40.5515Z" transform="translate(0.00004 0)"/><path d="M487.1599,0H29.84A29.91735,29.91735,0,0,0,0,29.84V417.22a29.91735,29.91735,0,0,0,29.84,29.84H487.16a29.91537,29.91537,0,0,0,29.84009-29.83V29.84A29.9175,29.9175,0,0,0,487.1599,0ZM497,417.23a9.85655,9.85655,0,0,1-9.84009,9.83H29.84A9.87148,9.87148,0,0,1,20,417.22V103.39c52.06-.16,116.68-.26,182.32-.26,64.25995,0,127.12995.09,178.84992.25.26.02.52.04.79.04,1.09008-.01,2.2-.02,3.29-.03q4.42494.015,8.73.03a9.35724,9.35724,0,0,0,1.40991-.11c16.12011-.12,32.32007-.18,48.34009-.18,17.42993,0,35.34008.07,53.27.21Zm0-333.88995c-17.92005-.14-35.82007-.21-53.25-.21-19.39,0-39.06006.09-58.54.26-52.43-.16-116.92-.26-182.86-.26-65.65,0-130.28.1-182.35.26V29.84A9.8715,9.8715,0,0,1,29.84,20H487.16a9.8651,9.8651,0,0,1,9.84009,9.84Z" transform="translate(0.00004 0)"/></svg>