<svg xmlns="http://www.w3.org/2000/svg" viewBox="0 0 141.93514 35.0259"><defs><style>.cls-1{fill:#cccccb;}.cls-2{fill:#188793;}</style></defs><g id="Layer_2" data-name="Layer 2"><g id="Layer_1-2" data-name="Layer 1"><path class="cls-1" d="M141.93514.37587h-4.00522V23.03273c-.683-2.02243-14.73935-20.40136-16.3506-22.65686h-4.5808V29.00681h4.02771V6.30636c.495,1.67456,15.29408,20.81393,16.63893,22.70045h4.27Zm-32.81348,0h-4.3586V29.00681h4.3586Z"/><path class="cls-1" d="M97.05216,8.49614A12.70874,12.70874,0,0,0,89.5811,1.04,16.36172,16.36172,0,0,0,83.61686,0a18.27038,18.27038,0,0,0-6.43728,1.06127A13.42931,13.42931,0,0,0,72.37147,4.0827,12.94075,12.94075,0,0,0,69.36755,8.817a17.61655,17.61655,0,0,0-1.03493,6.18389,15.95208,15.95208,0,0,0,1.04746,5.908,12.92752,12.92752,0,0,0,2.969,4.54718,13.1529,13.1529,0,0,0,4.64689,2.9203,17.10715,17.10715,0,0,0,6.08659,1.02867,16.94275,16.94275,0,0,0,1.76405-.08732q.839-.08994,1.61817-.22105l8.37253,5.92921,2.8478-2.76663-6.18132-4.9779A12.634,12.634,0,0,0,96.383,22.15876a16.78711,16.78711,0,0,0,1.69167-7.84323,15.94811,15.94811,0,0,0-1.02253-5.81939M92.47635,19.41578a9.39953,9.39953,0,0,1-1.97142,3.45215,8.45268,8.45268,0,0,1-3.16373,2.14619,11.52488,11.52488,0,0,1-4.25862.74036,9.96293,9.96293,0,0,1-4.05393-.79662,8.84611,8.84611,0,0,1-3.09137-2.23478,9.88222,9.88222,0,0,1-1.95774-3.47338,14.1533,14.1533,0,0,1-.68168-4.51342,13.63683,13.63683,0,0,1,.71671-4.52467A10.2939,10.2939,0,0,1,76.0471,6.70333a9.08171,9.08171,0,0,1,3.17626-2.26611,10.30749,10.30749,0,0,1,4.15008-.80774,10.84412,10.84412,0,0,1,4.21246.76287,8.12979,8.12979,0,0,1,3.06516,2.20116,9.57106,9.57106,0,0,1,1.874,3.507A15.98206,15.98206,0,0,1,93.158,14.78a14.67347,14.67347,0,0,1-.68168,4.63578"/><path class="cls-1" d="M61.64425.37587H57.639v22.658c-.68169-2.0232-14.73948-20.40213-16.35062-22.658H36.70889V29.00809h4.02517V6.30636c.49861,1.67417,15.29408,20.81469,16.64032,22.70173h4.26987Z"/><rect class="cls-1" x="24.47217" y="0.37587" width="4.3586" height="28.63094"/><polygon class="cls-2" points="18.808 0.376 0 0.376 0 4.093 7.259 4.093 7.259 29.008 11.595 29.008 11.595 4.093 18.808 4.093 18.808 0.376"/></g></g></svg>