<svg id="Capa_1" data-name="Capa 1" xmlns="http://www.w3.org/2000/svg" viewBox="0 0 512 442.06"><defs><style>.cls-1{fill:#fff;}</style></defs><path class="cls-1" d="M484.66,0H27.34A27.37785,27.37785,0,0,0,0,27.34V425.49a16.591,16.591,0,0,0,16.57,16.57H128.83l.02-.01H495.43A16.58244,16.58244,0,0,0,512,425.49V27.34A27.37785,27.37785,0,0,0,484.66,0ZM497,425.49a1.56418,1.56418,0,0,1-1.57,1.56H114.97l-.02.01H16.57A1.5727,1.5727,0,0,1,15,425.49V89.89c106.26-.35,254.97-.35,363.59-.02a6.72973,6.72973,0,0,0,.77.04h.08c1.09-.01,2.17-.02,3.26-.03,2.94.01,5.86.02,8.74.03h.03a7.421,7.421,0,0,0,1.24-.11c34.65-.25,68.97-.23,104.29.05Zm0-350.64c-38.72-.31-76.24-.3-114.3.03-108.97-.34-260.1-.34-367.7.01V27.34A12.35957,12.35957,0,0,1,27.34,15H484.66A12.35957,12.35957,0,0,1,497,27.34Z"/><path class="cls-1" d="M341.693,38.841H74.16a7.5,7.5,0,0,0,0,15H341.694a7.5,7.5,0,1,0-.001-15Z"/><circle class="cls-1" cx="436.72763" cy="46.341" r="8.61237"/><circle class="cls-1" cx="404.6788" cy="46.341" r="8.61237"/><circle class="cls-1" cx="372.62994" cy="46.341" r="8.61237"/><path class="cls-1" d="M194.71005,291.54386H437.84a7.5,7.5,0,0,0,0-15H194.71005a7.5,7.5,0,0,0,0,15Z"/><path class="cls-1" d="M437.84,319.44389H194.71005a7.5,7.5,0,0,0,0,15H437.84a7.5,7.5,0,0,0,0-15Z"/><path class="cls-1" d="M194.71005,197.231H437.84a7.5,7.5,0,0,0,0-15H194.71005a7.5,7.5,0,0,0,0,15Z"/><path class="cls-1" d="M194.71005,240.13105H437.84a7.5,7.5,0,0,0,0-15H194.71005a7.5,7.5,0,0,0,0,15Z"/><path class="cls-1" d="M132.93356,185.35908,95.06149,223.23164,78.60983,206.78a6.99994,6.99994,0,0,0-9.89941,9.89941l21.40137,21.40137a6.99981,6.99981,0,0,0,9.89941,0l21.40137-21.40137.03613-.03613L142.833,195.2585a6.99995,6.99995,0,0,0-9.89942-9.89942Z"/><path class="cls-1" d="M132.93356,279.67192,95.06149,317.54447,78.60983,301.09281a6.99994,6.99994,0,1,0-9.89941,9.89942l21.40137,21.40136a6.99978,6.99978,0,0,0,9.89941,0l21.40137-21.40136.03613-.03614L142.833,289.57133a6.99994,6.99994,0,0,0-9.89942-9.89941Z"/></svg>