<svg id="Capa_1" data-name="Capa 1" xmlns="http://www.w3.org/2000/svg" viewBox="0 0 463.9624 439.9741"><defs><style>.cls-1{fill:#fff;}</style></defs><path class="cls-1" d="M9.52,442.374a7.1893,7.1893,0,0,1-7.12-7.1328V367.2275a7.1883,7.1883,0,0,1,7.1333-7.1191H58.72V323.0146a7.19,7.19,0,0,1,7.1338-7.1191H227.2612V285.9209H175.37a7.1915,7.1915,0,0,1-7.1211-7.1348V210.7754a7.1907,7.1907,0,0,1,7.1343-7.1206h51.8779V173.6821h-154.3v29.9727h54.57a7.1886,7.1886,0,0,1,7.12,7.1338v68.0132a7.19,7.19,0,0,1-7.1338,7.1191H9.52a7.1877,7.1877,0,0,1-7.12-7.1328V210.7754a7.19,7.19,0,0,1,7.1333-7.1206H58.72V166.562a7.1908,7.1908,0,0,1,7.1338-7.12H227.2612V124.1H141.2124a7.2217,7.2217,0,0,1-7.1577-7.17V9.52a7.1908,7.1908,0,0,1,7.1338-7.12H327.5879a7.2034,7.2034,0,0,1,7.1211,7.1636l-.001,107.4155a7.1883,7.1883,0,0,1-7.1338,7.1206H241.502v35.3423h156.05a7.19,7.19,0,0,1,7.1211,7.1338v37.0791h54.57a7.1883,7.1883,0,0,1,7.1191,7.1338v68.0132a7.1869,7.1869,0,0,1-7.1328,7.1191H341.2324a7.1916,7.1916,0,0,1-7.1211-7.1348V210.7754a7.19,7.19,0,0,1,7.1348-7.1206h49.1865V173.6821H241.502v29.9727h51.8906a7.1906,7.1906,0,0,1,7.1211,7.1343v68.0127a7.1866,7.1866,0,0,1-7.1338,7.1191H241.502v29.9746h156.05a7.1874,7.1874,0,0,1,7.1211,7.1328v37.08h54.57a7.1868,7.1868,0,0,1,7.1191,7.1328v68.0137a7.1868,7.1868,0,0,1-7.1328,7.1191H341.2324a7.1914,7.1914,0,0,1-7.1211-7.1338V367.2275a7.1911,7.1911,0,0,1,7.1348-7.1191h49.1865V330.1338H238.8232v29.9746h54.5694a7.19,7.19,0,0,1,7.1211,7.1328v68.0137a7.1886,7.1886,0,0,1-7.1348,7.1191H175.37a7.1907,7.1907,0,0,1-7.1211-7.1338V367.2275a7.1911,7.1911,0,0,1,7.1348-7.1191h49.1987V330.1338H72.9609v29.9746h54.57a7.1891,7.1891,0,0,1,7.12,7.1328v68.0137a7.19,7.19,0,0,1-7.1338,7.1191Zm338.8316-14.24H452.123V374.3477H348.3516Zm-165.8614,0H286.2725V374.3477H182.49Zm-165.85,0h103.77V374.3477H16.6406Zm331.711-156.4522H452.123V217.896H348.3516Zm-165.8614,0H286.2725V217.896H182.49Zm-165.85,0h103.77V217.896H16.6406ZM167.7847,109.8457H320.4688V21.8428Zm-19.49-5.2017L300.9766,16.6406H148.2949Z" transform="translate(-2.3999 -2.3999)"/></svg>