<svg id="Capa_1" data-name="Capa 1" xmlns="http://www.w3.org/2000/svg" viewBox="0 0 324.5991 440.4995"><defs><style>.cls-1{fill:#fff;}</style></defs><path class="cls-1" d="M51,160.9a6.9982,6.9982,0,0,1-2.7773-.5151l-.0806-.0337-.0825-.0274a6.5776,6.5776,0,0,1-1.8208-1.0444,7.7912,7.7912,0,0,1-2.503-8.8066,7.3325,7.3325,0,0,1,2.483-3.337l.0737-.0537.0693-.0595a8.4724,8.4724,0,0,1,1.9092-1.0279A6.9562,6.9562,0,0,1,51,145.5H78.4639a7.7834,7.7834,0,0,1,6.8457,8.4868A7.6929,7.6929,0,0,1,78.4673,160.9Z" transform="translate(-2.6001 -2.3999)"/><path class="cls-1" d="M51,206.8a7.005,7.005,0,0,1-2.7773-.5156l-.1641-.0616A6.5354,6.5354,0,0,1,46.24,205.18a7.8025,7.8025,0,0,1-2.49-8.9434,7.2962,7.2962,0,0,1,2.47-3.3013l.1426-.1132a8.4711,8.4711,0,0,1,1.9126-1.0288A6.96,6.96,0,0,1,51,191.3h89.3a7.75,7.75,0,1,1,0,15.5Z" transform="translate(-2.6001 -2.3999)"/><path class="cls-1" d="M51,251.6a6.9874,6.9874,0,0,1-2.7773-.5156l-.1641-.0615a6.5482,6.5482,0,0,1-1.82-1.043,7.6377,7.6377,0,0,1-2.5069-8.8965,7.3549,7.3549,0,0,1,2.4878-3.3486l.0728-.0528.0683-.0586a7.9262,7.9262,0,0,1,1.8047-.9814A8.9268,8.9268,0,0,1,51,236.1006H231.8a7.75,7.75,0,0,1,0,15.499Z" transform="translate(-2.6001 -2.3999)"/><path class="cls-1" d="M51,296.5a6.9874,6.9874,0,0,1-2.7773-.5156l-.1641-.0615A6.5175,6.5175,0,0,1,46.24,294.88a7.6388,7.6388,0,0,1-2.5083-8.8975,7.3416,7.3416,0,0,1,2.4869-3.3467l.0737-.0537.07-.06a8.4582,8.4582,0,0,1,1.9038-1.0244A6.95,6.95,0,0,1,51,281H231.8a7.75,7.75,0,0,1,0,15.5Z" transform="translate(-2.6001 -2.3999)"/><path class="cls-1" d="M51,341.3994a6.9874,6.9874,0,0,1-2.7773-.5156l-.1641-.0615a6.5482,6.5482,0,0,1-1.82-1.043,7.6377,7.6377,0,0,1-2.5069-8.8965,7.3549,7.3549,0,0,1,2.4878-3.3486l.0728-.0528.0683-.0585a5.2364,5.2364,0,0,1,1.6978-.9454l.1641-.0615A6.9874,6.9874,0,0,1,51,325.9H231.8a7.7591,7.7591,0,0,1,7.7,7.8,7.4716,7.4716,0,0,1-2.1963,5.4023,7.8493,7.8493,0,0,1-5.5039,2.2969Z" transform="translate(-2.6001 -2.3999)"/><path class="cls-1" d="M26.8,442.8994A24.2268,24.2268,0,0,1,2.6,418.7V68.2A24.2273,24.2273,0,0,1,26.8,44h21V26.6A24.228,24.228,0,0,1,72,2.4H303a24.2271,24.2271,0,0,1,24.1992,24.2V377.2a24.5929,24.5929,0,0,1-1.4189,8.1777c-.1055.2276-.1924.4532-.2774.68a3.6588,3.6588,0,0,1-.1494.3692l-.0566.122A24.3112,24.3112,0,0,1,303,401.3H282.1v17.4A24.2263,24.2263,0,0,1,257.9,442.8994ZM26.8,58.8a9.2607,9.2607,0,0,0-9.2,9.3V418.6a9.2111,9.2111,0,0,0,9.2,9.2012h231A9.3011,9.3011,0,0,0,266.7793,421h.3213l.1-2.4V125.8579l-42.7422.7427A24.2283,24.2283,0,0,1,200.3008,102.4V58.8ZM72,17.3a9.31,9.31,0,0,0-9.3,9.3V44h145a24.0336,24.0336,0,0,1,17.1025,7.0972l50.1,50.1A24.0345,24.0345,0,0,1,282,118.3v268.001h21A9.3121,9.3121,0,0,0,312.3008,377V26.6A9.3112,9.3112,0,0,0,303,17.3Zm146.0674,91.76A9.13,9.13,0,0,0,224.5,111.7l39.3018-.7007L215.1992,62.5156V102.5A8.6749,8.6749,0,0,0,218.0674,109.0605Z" transform="translate(-2.6001 -2.3999)"/></svg>