<svg id="Layer_1" data-name="Layer 1" xmlns="http://www.w3.org/2000/svg" viewBox="0 0 517.0394 447.0236"><defs><style>.cls-1{fill:#fff;}</style></defs><path class="cls-1" d="M484.66,4.9636H27.34A27.3778,27.3778,0,0,0,0,32.3036v398.15a16.5845,16.5845,0,0,0,16.57,16.57H495.43a16.5909,16.5909,0,0,0,16.57-16.57V32.3036A27.3778,27.3778,0,0,0,484.66,4.9636ZM497,430.4536a1.5791,1.5791,0,0,1-1.57,1.57H16.57a1.5726,1.5726,0,0,1-1.57-1.57v-335.6c106.26-.35,254.97-.35,363.59-.02a6.7357,6.7357,0,0,0,.77.04h.08l3.26-.03c2.94.01,5.86.02,8.74.03h.03a7.4215,7.4215,0,0,0,1.24-.11c34.65-.25,68.97-.23,104.29.05Zm0-350.64c-38.72-.31-76.24-.3-114.3.03-108.97-.34-260.1-.34-367.7.01v-47.55a12.36,12.36,0,0,1,12.34-12.34H484.66A12.36,12.36,0,0,1,497,32.3036Z"/><path class="cls-1" d="M341.693,43.8086H74.16a7.5,7.5,0,0,0,0,15H341.694a7.5,7.5,0,0,0-.001-15Z"/><circle class="cls-1" cx="436.7276" cy="51.3086" r="8.6124"/><circle class="cls-1" cx="404.6788" cy="51.3086" r="8.6124"/><circle class="cls-1" cx="372.6299" cy="51.3086" r="8.6124"/><path class="cls-1" d="M280.0721,235.351H258.3758a84.6062,84.6062,0,0,0-3.9824-9.6982l15.4375-15.4385a6.5081,6.5081,0,0,0,0-9.2119l-30.6152-30.6153a6.5236,6.5236,0,0,0-9.2129,0l-15.3321,15.3418a86.9154,86.9154,0,0,0-9.68-4.039V159.8578a6.523,6.523,0,0,0-6.5157-6.5156H155.1747a6.523,6.523,0,0,0-6.5157,6.5156v21.6973a86.441,86.441,0,0,0-9.6884,3.9834L123.5321,170.1a6.5084,6.5084,0,0,0-9.2119,0L83.7049,200.7153A6.4752,6.4752,0,0,0,82.5,208.26a6.285,6.285,0,0,0,1.2051,1.667L99.037,225.269a86.5189,86.5189,0,0,0-4.0293,9.67H73.1756a6.523,6.523,0,0,0-6.5156,6.5156v43.7041a6.523,6.523,0,0,0,6.5156,6.5157H95.0077a86.6059,86.6059,0,0,0,4.0293,9.67L83.7049,316.686a6.4966,6.4966,0,0,0,0,9.2119L114.32,356.5131a6.5081,6.5081,0,0,0,9.2119,0l15.4385-15.4385a86.6716,86.6716,0,0,0,9.6884,3.9834v21.6963a6.523,6.523,0,0,0,6.5157,6.5157h43.3007a6.523,6.523,0,0,0,6.5157-6.5157v-21.831a87.2693,87.2693,0,0,0,9.68-4.0391l15.3321,15.3408a6.5212,6.5212,0,0,0,9.2129,0L269.8309,325.61a6.5081,6.5081,0,0,0,0-9.2119l-15.4375-15.4385a84.537,84.537,0,0,0,3.9824-9.6982h21.6963a6.523,6.523,0,0,0,6.5156-6.5157V241.8666A6.5229,6.5229,0,0,0,280.0721,235.351Zm-32.7773,47.66a73.086,73.086,0,0,1-6.5713,16.0078,6.5467,6.5467,0,0,0,1.083,7.7783l14.2012,14.2021-21.3936,21.4024-14.125-14.124a6.4973,6.4973,0,0,0-7.8086-1.0635,73.154,73.154,0,0,1-15.98,6.6582,6.5315,6.5315,0,0,0-4.7412,6.2646v20.1016H161.69V340.2524a6.5327,6.5327,0,0,0-4.77-6.2754,72.7032,72.7032,0,0,1-16.0078-6.57,6.4988,6.4988,0,0,0-7.7793,1.082l-14.2012,14.2L97.5282,321.2866l14.125-14.1153a6.5619,6.5619,0,0,0,1.0625-7.8183,72.6524,72.6524,0,0,1-6.6582-15.9688,6.5371,6.5371,0,0,0-6.2744-4.7412H79.6913V247.97H99.7831a6.538,6.538,0,0,0,6.2744-4.7413,72.6794,72.6794,0,0,1,6.6582-15.97,6.561,6.561,0,0,0-1.0635-7.8183l-14.124-14.1153,21.4033-21.4023,14.2012,14.2a6.4973,6.4973,0,0,0,7.7793,1.083,72.6064,72.6064,0,0,1,16.0078-6.57,6.534,6.534,0,0,0,4.77-6.2764V166.3735H191.96V186.475a6.5336,6.5336,0,0,0,4.7412,6.2657,73.1582,73.1582,0,0,1,15.98,6.6562,6.4962,6.4962,0,0,0,7.8086-1.0615l14.125-14.124,21.3936,21.4023-14.2012,14.2012a6.55,6.55,0,0,0-1.083,7.7783,73.0947,73.0947,0,0,1,6.5713,16.0078,6.531,6.531,0,0,0,6.2754,4.7813h19.9863V278.23H253.57A6.5309,6.5309,0,0,0,247.2948,283.0112Z"/><path class="cls-1" d="M176.6239,214.3432a48.9678,48.9678,0,1,0,48.9629,48.9629A49.0232,49.0232,0,0,0,176.6239,214.3432Zm0,85.8633a36.8955,36.8955,0,1,1,36.8906-36.9A36.9425,36.9425,0,0,1,176.6239,300.2065Z"/><path class="cls-1" d="M319.84,263.3006l43.3455-43.3455a7.5,7.5,0,0,0-10.6066-10.6066L303.916,258.0112a7.5545,7.5545,0,0,0,0,10.6066c.0908.0908.1887.17.2831.2554l48.3995,48.3994a7.5,7.5,0,0,0,10.6065-10.6065Z"/><path class="cls-1" d="M394.503,209.3485a7.5,7.5,0,0,0-10.6067,10.6066l43.3456,43.3455-43.3655,43.3655a7.5,7.5,0,0,0,10.6066,10.6066l48.3995-48.3995c.0944-.0851.1923-.1646.2831-.2554a7.5545,7.5545,0,0,0,0-10.6066Z"/></svg>