<svg id="Capa_1" data-name="Capa 1" xmlns="http://www.w3.org/2000/svg" viewBox="0 0 517 447.06"><defs><style>.cls-1{fill:#f800ff;}</style></defs><path class="cls-1" d="M165.74775,207.39294a9.99932,9.99932,0,0,0-14.15332-.00146l-46.37988,46.37939a10.01082,10.01082,0,0,0,0,14.14161l46.37988,46.37988a9.99911,9.99911,0,1,0,14.14112-14.14063L126.427,260.84216l39.30713-39.30761A10.01172,10.01172,0,0,0,165.74775,207.39294Z" transform="translate(-0.39894)"/><path class="cls-1" d="M366.198,207.39148a9.99945,9.99945,0,0,0-14.1416,14.14111l39.30957,39.30957-39.30664,39.30567A9.99964,9.99964,0,1,0,366.198,314.29236l46.37988-46.37891a9.99871,9.99871,0,0,0,0-14.14258Z" transform="translate(-0.39894)"/><path class="cls-1" d="M248.97285,211.8031a9.99545,9.99545,0,0,0-13.53174,4.11035l-46.252,86.59863a10.00236,10.00236,0,0,0,8.81445,14.7129h.00049a9.98882,9.98882,0,0,0,8.82715-5.29l46.25195-86.59961A10.01248,10.01248,0,0,0,248.97285,211.8031Z" transform="translate(-0.39894)"/><path class="cls-1" d="M255.948,295.02185a10.0124,10.0124,0,0,0-10,10v1.05176a10,10,0,0,0,20,0v-1.05078A10.01074,10.01074,0,0,0,255.948,295.02185Z" transform="translate(-0.39894)"/><path class="cls-1" d="M289.92158,295.02283a10.01177,10.01177,0,0,0-10,10v1.05175a10,10,0,0,0,20,0v-1.05175A10.01177,10.01177,0,0,0,289.92158,295.02283Z" transform="translate(-0.39894)"/><path class="cls-1" d="M323.89521,295.02283a10.01177,10.01177,0,0,0-10,10v1.05175a10,10,0,1,0,20,0v-1.05175A10.01177,10.01177,0,0,0,323.89521,295.02283Z" transform="translate(-0.39894)"/><path class="cls-1" d="M344.5923,42.58764H77.05909a10,10,0,0,0,0,20H344.59327a10,10,0,0,0-.001-20Z" transform="translate(-0.39894)"/><path class="cls-1" d="M380.86378,40.5515a10.01146,10.01146,0,0,0-10,10v1.30323a10,10,0,1,0,20,0V50.5515A10.01146,10.01146,0,0,0,380.86378,40.5515Z" transform="translate(-0.39894)"/><path class="cls-1" d="M410.80128,40.5515a10.01146,10.01146,0,0,0-10,10v1.30323a10,10,0,1,0,20,0V50.5515A10.01146,10.01146,0,0,0,410.80128,40.5515Z" transform="translate(-0.39894)"/><path class="cls-1" d="M440.73878,40.5515a10.01146,10.01146,0,0,0-10,10v1.30323a10,10,0,1,0,20,0V50.5515A10.01146,10.01146,0,0,0,440.73878,40.5515Z" transform="translate(-0.39894)"/><path class="cls-1" d="M487.55885,0H30.2389a29.91735,29.91735,0,0,0-29.84,29.84V417.22a29.91735,29.91735,0,0,0,29.84,29.84h457.32a29.91537,29.91537,0,0,0,29.84009-29.83V29.84A29.91747,29.91747,0,0,0,487.55885,0Zm9.84009,417.23a9.85654,9.85654,0,0,1-9.84009,9.83H30.2389a9.87149,9.87149,0,0,1-9.84-9.84V103.39c52.06-.16,116.68-.26,182.32-.26,64.25995,0,127.12995.09,178.84992.25.26.02.52.04.79.04,1.09008-.00995,2.2-.02,3.29-.03q4.42492.015,8.73.03a9.35683,9.35683,0,0,0,1.40991-.11c16.12012-.12,32.32007-.18,48.34009-.18,17.42993,0,35.34008.07,53.27.21Zm0-333.88995c-17.92005-.14-35.82007-.21-53.25-.21-19.39,0-39.06006.09-58.54.26-52.43-.16-116.92-.26-182.86-.26-65.65,0-130.28.1-182.35.26V29.84a9.8715,9.8715,0,0,1,9.84-9.84h457.32a9.8651,9.8651,0,0,1,9.84009,9.84Z" transform="translate(-0.39894)"/></svg>