<svg id="Layer_1" data-name="Layer 1" xmlns="http://www.w3.org/2000/svg" viewBox="0 0 517.0394 465.6619"><path d="M10.02,463.3a7.4492,7.4492,0,0,1,0-14.8984H75.0011L87.4914,419.3H37.52A32.1866,32.1866,0,0,1,5.37,387.1507v-148.5A32.1867,32.1867,0,0,1,37.52,206.5013h231a32.1868,32.1868,0,0,1,32.1494,32.1494v3.5508H323.12a9.0488,9.0488,0,0,0,7.2842-3.78l.0537-.0761.7129-1.1866v-.28c.0136-.0489.0263-.1.038-.1534l1.1485-4.0224-1.9121-.94A85.2869,85.2869,0,0,1,282.4709,154.75V108.71l-2.3321-.2012a15.5527,15.5527,0,0,1-14.1679-15.3584v-16.8A73.6588,73.6588,0,0,1,339.42,2.9017h31.1a36.9417,36.9417,0,0,1,30.3086,15.71l.6728.9629,1.169.1152A56.7576,56.7576,0,0,1,454.07,76.3509v78.6a85.2965,85.2965,0,0,1-40.01,72.542l-1.19.751v5.6211l.1.3994v.4014l.4473,1.79.207.2061.0869.1748a8.95,8.95,0,0,0,8.21,5.2656h33a57.0144,57.0144,0,0,1,56.9492,56.9492v99.1a64.7982,64.7982,0,0,1-18.9609,45.9033l-4.3135,4.3477H507.02a7.4081,7.4081,0,0,1,7.4492,7.3486v.1006A7.4578,7.4578,0,0,1,507.02,463.3Zm329.4-57.8a25.58,25.58,0,0,0-25.5508,25.5508v17.25H446.72a50.3071,50.3071,0,0,0,50.251-50.25V339.5H463.72a9.6613,9.6613,0,0,0-9.65,9.65v44.4A11.9627,11.9627,0,0,1,442.12,405.5Zm-38.8506-18.55A32.31,32.31,0,0,1,282.04,416.139l-1.4707.6875v31.4746h18.6016v-17.25A40.4951,40.4951,0,0,1,339.62,390.6019h99.75V349.1507a24.5776,24.5776,0,0,1,24.55-24.5488h33.15V299.0511A42.0976,42.0976,0,0,0,455.02,257H425.7531l-7.0654,9.3086A59.6022,59.6022,0,0,1,371.42,290h-.2666a58.6069,58.6069,0,0,1-52.0723-31.63l-.7158-1.37H300.57Zm-59.7178,61.3506h24.8194V419.2H252.4923Zm-60.9,0h44.8965L236.4884,419.2H191.592Zm-31.0947,0h15.0908L175.588,419.2H155.1623Zm-57.7061,0h42.6329l16.79-78.6015H124.8371ZM34.8693,404.4017H93.8029l17.9619-41.9473a12.5309,12.5309,0,0,1,11.4551-7.5527h30.3a13.5917,13.5917,0,0,1,2.6.251,12.4434,12.4434,0,0,1,9.5039,14.7744l-7.3584,34.374H268.42a17.27,17.27,0,0,0,17.251-17.25v-148.5A17.27,17.27,0,0,0,268.42,221.3h-231a17.27,17.27,0,0,0-17.251,17.251v148.5a17.2781,17.2781,0,0,0,14.7,17.0625Zm307.46-157.3125a24.3419,24.3419,0,0,1-6.4073,6.0273l-2.2138,1.45,1.5312,2.1592a44.0909,44.0909,0,0,0,71.22.7588l2.8448-3.7217-2.045-1.5468a23.7739,23.7739,0,0,1-7.5859-9.751,17.966,17.966,0,0,1-.667-1.7041c-.0107-.0479-.0224-.0938-.0351-.1387v-.2764l-.2461-.58c-.0948-.3506-.19-.6387-.2862-.9268l-.0224-.0664c-.0137-.0645-.0284-.1338-.0459-.207V236.4l-.1065-.0048-.0049-1.2549-3.3408,1.0888a85.7456,85.7456,0,0,1-26.999,4.3663,84.783,84.783,0,0,1-19.3174-2.2286l-3.1328-.7334v3.1133a3.97,3.97,0,0,1-.1348.4727c-.07.14-.1494.3271-.2265.5176a2.5565,2.5565,0,0,0-.3721.875c-.0176.0507-.0361.1064-.0537.165l-.0918.0908-.1924.5811a1.825,1.825,0,0,1-.1074.2988l-.43.6436.002.1865c-.0459.081-.0879.1592-.1221.2275l-.2715.541v.1016l-.04.0791c-.0586.09-.1162.1807-.1729.2715-.0674.1084-.1338.2178-.209.3262A8.2153,8.2153,0,0,0,342.3293,247.0892Zm46.13-164.9561a202.0031,202.0031,0,0,1-41.08,17.5762,205.4258,205.4258,0,0,1-47.5,8.3945l-2.41.1329v46.414a58.0291,58.0291,0,0,0,.834,11.2188,70.5492,70.5492,0,0,0,70.0088,59.6328l.2158-.001a70.9789,70.9789,0,0,0,70.8428-70.95V122.8119l-13.1436-4.3809A53.0559,53.0559,0,0,1,392.1584,83.6l-.9366-3.0371Zm16.21-14.082A38.3331,38.3331,0,0,0,430.9084,104.37l8.3623,2.8437V76.3509a42.4418,42.4418,0,0,0-31.3955-40.7656l-3.2061-.8525ZM339.42,17.8a58.6169,58.6169,0,0,0-58.5508,58.5508v17.251H288.22a188.7242,188.7242,0,0,0,54.7392-8.1094,184.3925,184.3925,0,0,0,45.5186-20.6816l1.1934-.75V28.7122l-.3936-.624A22.14,22.14,0,0,0,370.42,17.8Z"/></svg>