<?xml version="1.0" encoding="utf-8"?>
<!-- Generator: Adobe Illustrator 23.1.0, SVG Export Plug-In . SVG Version: 6.00 Build 0)  -->
<svg version="1.1" id="Capa_1" xmlns="http://www.w3.org/2000/svg" xmlns:xlink="http://www.w3.org/1999/xlink" x="0px" y="0px"
	 viewBox="0 0 512 512" style="enable-background:new 0 0 512 512;" xml:space="preserve">
<style type="text/css">
	.st0{fill:url(#SVGID_1_);}
</style>
<linearGradient id="SVGID_1_" gradientUnits="userSpaceOnUse" x1="-5.746047e-05" y1="256" x2="512" y2="256">
	<stop  offset="0" style="stop-color:#189EAD"/>
	<stop  offset="0.5698" style="stop-color:#158693"/>
	<stop  offset="1" style="stop-color:#12697A"/>
</linearGradient>
<path class="st0" d="M479.9,202.5h-44.3l-2.2-8.8c20.7-11.1,34.7-31.1,38-54.1c4.8-0.5,8.6-4.4,8.9-9.3l3.9-62.5c0-0.2,0-0.4,0-0.6
	v-3.6c0-0.7,0-1.4,0-2.2c-0.6-17.5-8.2-33.6-21.5-45.2C449.4,4.3,431.5-1.4,413.8,0.3c-0.1,0-0.2,0-0.3,0
	c-0.4,0.1-42.7,5.3-68.9,6.7c-6.6,0.4-18.8,3.7-26.2,21.6c-3.6,8.8-5.7,20.5-5.7,32v13.6c0,0.2,0,0.5,0,0.7l1.5,21.5
	c-17.4-8.7-37-13.2-58.4-13.2c0,0,0,0,0,0c-8.9,0-17.5,0.8-25.8,2.3c-7.9-24.5-20.8-44.9-37.6-59.4C173,9,147.8,0,119.8,0
	C83.4,0,52.7,14.8,31.2,42.9C10.8,69.6,0,106.6,0,149.8v0.7c0,27.4,11.7,52.6,31.4,69.4c-11.3,8.3-18.6,21.7-18.6,36.8v102.9
	c0,5.5,4.5,10,10,10h111c-0.1,1.2-0.2,2.4-0.2,3.6V492H24c-5.5,0-10,4.5-10,10s4.5,10,10,10h463.8c0,0,0.1,0,0.1,0c0,0,0.1,0,0.1,0
	c0.7,0,1.3-0.1,2-0.2c0.6-0.1,1.3-0.3,1.9-0.6c0.6-0.3,1.2-0.5,1.7-0.9c0.5-0.4,1.1-0.8,1.5-1.2c0.5-0.5,0.9-1,1.2-1.5
	c0.4-0.5,0.7-1.1,0.9-1.7c0.3-0.6,0.4-1.2,0.6-1.9c0.1-0.6,0.2-1.3,0.2-2s-0.1-1.3-0.2-2c-0.1-0.6-0.3-1.3-0.6-1.9
	c-0.3-0.6-0.6-1.2-0.9-1.7c-0.4-0.5-0.8-1.1-1.2-1.5c-0.5-0.5-1-0.9-1.5-1.2c-0.5-0.4-1.1-0.7-1.7-0.9c-0.6-0.3-1.2-0.5-1.9-0.6
	c-0.7-0.1-1.3-0.2-2-0.2c0,0-0.1,0-0.1,0H378.3V373.2c0-4.4-0.6-8.6-1.8-12.6H502c5.5,0,10-4.5,10-10v-116
	C512,216.9,497.6,202.5,479.9,202.5z M418.2,178.8c-4.7,1.8-7.2,6.8-6.1,11.7l4.3,17.8l-17.9,12.4l-8.3-5.8
	c-2.5-16.6-6.7-32-12.4-46.1c-6.6-16.5-15.3-30.9-25.9-43c0,0,0.1-0.1,0.1-0.2c0.4-0.6,0.8-1.3,1.2-1.9c0.1-0.1,0.2-0.3,0.2-0.4
	c0.4-0.6,0.7-1.2,1-1.9c0-0.1,0.1-0.2,0.1-0.3c0.4-0.7,0.7-1.4,1-2.1c0.1-0.2,0.1-0.3,0.2-0.5c0.3-0.7,0.6-1.4,0.9-2.2
	c0,0,0-0.1,0-0.1c0.3-0.7,0.5-1.4,0.8-2.1c0.1-0.2,0.1-0.3,0.2-0.5c0.3-0.7,0.5-1.5,0.7-2.2c0-0.1,0.1-0.2,0.1-0.4
	c0.2-0.7,0.4-1.3,0.6-2c0-0.1,0.1-0.3,0.1-0.4c0.2-0.7,0.4-1.5,0.5-2.2c0-0.2,0.1-0.3,0.1-0.5c0.2-0.7,0.3-1.4,0.5-2.1
	c0-0.1,0-0.1,0-0.2c0.1-0.7,0.3-1.5,0.4-2.2c0-0.2,0.1-0.3,0.1-0.5c0.1-0.7,0.2-1.4,0.3-2.2c0-0.1,0-0.1,0-0.2
	c0.1-0.7,0.2-1.3,0.3-2c0-0.1,0-0.3,0.1-0.4c0.1-0.7,0.2-1.4,0.2-2c0-0.1,0-0.2,0-0.3c0.1-0.6,0.1-1.2,0.2-1.8c0-0.1,0-0.2,0-0.3
	c0-0.6,0.1-1.3,0.1-1.9c0-0.1,0-0.3,0-0.4c0-0.6,0.1-1.2,0.1-1.8c24.5,6,50.4,6,74.9-0.1l0.8-0.2c0.1,1.3,0.3,2.7,0.4,4.1
	c0.2,2.6,0.5,5.3,0.8,8c0,0.2,0,0.3,0.1,0.5c0.1,0.8,0.2,1.7,0.3,2.5c0,0.2,0.1,0.4,0.1,0.6c0.1,0.6,0.2,1.2,0.3,1.8
	c0,0.3,0.1,0.6,0.1,0.9c0.1,0.7,0.2,1.4,0.4,2.1c0.1,0.4,0.2,0.8,0.2,1.3c0.1,0.3,0.1,0.6,0.2,1c0.3,1.7,0.7,3.3,1.2,4.9
	c0,0,0,0,0,0c1.5,5.5,3.8,10.5,7.2,14.7c0.1,0.2,0.3,0.3,0.4,0.5c0.3,0.3,0.6,0.7,0.9,1c0.5,0.5,1,1,1.5,1.5c0,0,0,0,0,0
	C450.6,153.4,437.6,171.2,418.2,178.8z M332.8,60.7L332.8,60.7c0-15.8,5-33.2,13-33.6c26.4-1.5,66.9-6.5,70.1-6.8
	c12.2-1.2,24.4,2.8,33.6,10.9c9.1,8,14.3,18.9,14.7,30.8c0,0.5,0,1,0,1.5v3.3l-2.7,43.8c0-0.1-0.1-0.2-0.1-0.3
	c-0.1-0.4-0.3-0.9-0.4-1.4c0-0.1-0.1-0.2-0.1-0.3c-1.1-4.7-1.9-10.9-2.6-18.7c0,0,0,0,0,0c-0.6-6.5-1.2-12.6-2.6-17.4
	c-1.1-3.8-4.4-6.5-8.1-7c-1.2-0.2-2.6-0.1-3.8,0.2l-11.3,2.8c-22.1,5.5-45.5,5.3-67.5-0.5l-9.9-2.6c-3-0.8-6.2-0.1-8.7,1.7
	c-2.5,1.9-3.9,4.8-3.9,7.9v8c0,0.7,0,1.5,0,2.2c0,0.2,0,0.5,0,0.7c0,0.5,0,1-0.1,1.4c0,0.3,0,0.6,0,0.9c0,0.4,0,0.8-0.1,1.3
	c0,0.3,0,0.6-0.1,0.9c0,0.4-0.1,0.8-0.1,1.2c0,0.3-0.1,0.6-0.1,0.9c0,0.4-0.1,0.8-0.1,1.1c0,0.3-0.1,0.6-0.1,0.9
	c0,0.4-0.1,0.7-0.1,1.1c0,0.3-0.1,0.6-0.1,0.9c-0.1,0.4-0.1,0.7-0.2,1.1c0,0.3-0.1,0.6-0.2,0.9c-0.1,0.3-0.1,0.7-0.2,1
	c-0.1,0.3-0.1,0.6-0.2,0.8c-0.1,0.3-0.1,0.7-0.2,1c-0.1,0.3-0.1,0.5-0.2,0.8c-0.1,0.3-0.2,0.6-0.2,1c-0.1,0.3-0.1,0.5-0.2,0.8
	c-0.1,0.3-0.2,0.6-0.3,0.9c-0.1,0.2-0.1,0.5-0.2,0.7c-0.1,0.3-0.2,0.6-0.3,0.9c-0.1,0.2-0.1,0.4-0.2,0.7c-0.1,0.3-0.2,0.6-0.3,0.9
	c-0.1,0.2-0.1,0.4-0.2,0.6c-0.1,0.4-0.3,0.7-0.4,1.1c0,0.1-0.1,0.2-0.1,0.3c-0.2,0.5-0.4,0.9-0.6,1.3c-0.6-0.5-1.2-1-1.8-1.5
	l-2.5-35.9V60.7z M256,103.2C256,103.2,256,103.2,256,103.2c61.9,0,104.8,45.1,114.9,117.6c0.1,0.9,0.3,1.8,0.4,2.8
	c0.1,0.4,0.1,0.8,0.1,1.2c0.1,1.1,0.2,2.1,0.4,3.2c0,0.3,0.1,0.5,0.1,0.8c0,0.2,0,0.4,0.1,0.6c0.1,1,0.2,2,0.3,3c0,0.1,0,0.1,0,0.2
	c0,0.5,0.1,0.9,0.1,1.4c0.1,0.9,0.1,1.8,0.2,2.7c0,0.5,0.1,1.1,0.1,1.6c0.1,0.8,0.1,1.7,0.2,2.5c0,0.6,0.1,1.1,0.1,1.7
	c0,0.8,0.1,1.7,0.1,2.5c0,0.6,0,1.1,0.1,1.7c0,0.9,0,1.8,0.1,2.6c0,0.1,0,0.2,0,0.3c0,0.4,0,0.9,0,1.3c0,1.4,0,2.8,0,4.2
	c0,0,0,0,0,0.1v0.8c0,0.9,0,1.8,0,2.7c0,0.3,0,0.6,0,0.9c0,0,0,0.1,0,0.1c0,0.6,0,1.1-0.1,1.7c0,0.4,0,0.7-0.1,1.1
	c0,0.1,0,0.2,0,0.3c0,0.5-0.1,0.9-0.1,1.4c0,0.3-0.1,0.7-0.1,1c0,0.2,0,0.3-0.1,0.5c0,0.4-0.1,0.8-0.1,1.2c0,0.3-0.1,0.6-0.1,0.9
	c0,0.2-0.1,0.5-0.1,0.7c-0.1,0.4-0.1,0.8-0.2,1.2c0,0.2-0.1,0.4-0.1,0.6c-0.1,0.3-0.1,0.6-0.2,1c-0.1,0.5-0.2,1-0.3,1.5
	c0,0,0,0,0,0.1c-0.1,0.4-0.2,0.8-0.2,1.2c-0.1,0.5-0.2,1-0.3,1.5c-0.1,0.4-0.2,0.8-0.3,1.2c-0.1,0.5-0.2,1-0.4,1.4
	c-0.1,0.4-0.2,0.8-0.3,1.2c-0.1,0.5-0.3,1-0.4,1.4c-0.1,0.4-0.2,0.8-0.4,1.2c-0.1,0.5-0.3,0.9-0.4,1.4c-0.1,0.4-0.3,0.8-0.4,1.2
	c-0.2,0.5-0.3,0.9-0.5,1.4c-0.1,0.4-0.3,0.8-0.4,1.2c-0.2,0.5-0.3,0.9-0.5,1.4c-0.2,0.4-0.3,0.8-0.5,1.2c-0.2,0.4-0.4,0.9-0.6,1.3
	c-0.2,0.4-0.3,0.8-0.5,1.1c-0.2,0.4-0.4,0.9-0.6,1.3c-0.2,0.4-0.4,0.7-0.5,1.1c-0.2,0.4-0.4,0.9-0.7,1.3c-0.2,0.4-0.4,0.7-0.6,1.1
	c-0.2,0.4-0.5,0.8-0.7,1.3c-0.2,0.4-0.4,0.7-0.6,1.1c-0.2,0.4-0.5,0.8-0.7,1.2c-0.2,0.4-0.4,0.7-0.6,1.1c-0.3,0.4-0.5,0.8-0.8,1.2
	c-0.2,0.3-0.4,0.7-0.7,1c-0.3,0.4-0.5,0.8-0.8,1.2c-0.2,0.3-0.5,0.7-0.7,1c-0.3,0.4-0.6,0.8-0.9,1.2c-0.2,0.3-0.5,0.7-0.7,1
	c-0.3,0.4-0.6,0.8-0.9,1.1c-0.3,0.3-0.5,0.6-0.8,0.9c-0.3,0.4-0.6,0.8-0.9,1.1c-0.3,0.3-0.5,0.6-0.8,0.9c-0.3,0.4-0.7,0.7-1,1.1
	c-0.3,0.3-0.5,0.6-0.8,0.9c-0.3,0.4-0.7,0.7-1,1.1c-0.3,0.3-0.5,0.6-0.8,0.8c-0.4,0.4-0.7,0.7-1.1,1.1c-0.3,0.3-0.5,0.5-0.8,0.8
	c-0.4,0.4-0.8,0.7-1.2,1.1c-0.3,0.2-0.5,0.5-0.8,0.7c-0.4,0.4-0.8,0.7-1.3,1c-0.3,0.2-0.5,0.5-0.8,0.7c-0.5,0.4-0.9,0.7-1.4,1.1
	c-0.2,0.2-0.5,0.4-0.7,0.6c-0.5,0.4-1.1,0.8-1.6,1.2c-0.2,0.1-0.4,0.3-0.6,0.4c-1.5,1-3,2-4.5,2.9c-0.4,0-0.9,0-1.3,0H305h-9.3
	l-2.6-13.5c26.6-13.7,43.3-40.9,43.3-71.3v-33.4c0-5.5-4.5-10-10-10h-53.5c-47.9,0-80.3-27-80.6-27.2c-3-2.5-7.1-3.1-10.7-1.5
	c-3.5,1.6-5.8,5.2-5.8,9.1v63c0,10.5,2,20.5,5.7,29.8c7,17.7,20.2,32.5,37.7,41.5l-2.6,13.5H207h-27.6c-0.4,0-0.9,0-1.3,0
	c-0.6-0.4-1.2-0.8-1.8-1.1c-0.3-0.2-0.5-0.3-0.8-0.5c-0.6-0.4-1.3-0.8-1.9-1.3c-0.3-0.2-0.6-0.4-0.9-0.6c-0.4-0.3-0.9-0.6-1.3-0.9
	c-0.3-0.2-0.6-0.5-1-0.7c-0.4-0.3-0.8-0.6-1.2-0.9c-0.3-0.3-0.6-0.5-1-0.8c-0.4-0.3-0.7-0.6-1.1-0.9c-0.3-0.3-0.6-0.6-1-0.9
	c-0.3-0.3-0.7-0.6-1-0.9c-0.3-0.3-0.6-0.6-0.9-0.9c-0.3-0.3-0.7-0.6-1-0.9c-0.3-0.3-0.6-0.6-0.9-0.9c-0.3-0.3-0.6-0.6-0.9-1
	c-0.3-0.3-0.6-0.6-0.9-1c-0.3-0.3-0.6-0.7-0.9-1c-0.3-0.3-0.6-0.7-0.9-1c-0.3-0.3-0.6-0.7-0.9-1c-0.3-0.3-0.6-0.7-0.8-1
	c-0.3-0.4-0.6-0.7-0.8-1.1c-0.3-0.3-0.5-0.7-0.8-1.1c-0.3-0.4-0.5-0.7-0.8-1.1c-0.3-0.4-0.5-0.7-0.8-1.1c-0.3-0.4-0.5-0.7-0.8-1.1
	c-0.2-0.4-0.5-0.7-0.7-1.1c-0.2-0.4-0.5-0.8-0.7-1.2c-0.2-0.4-0.5-0.7-0.7-1.1c-0.2-0.4-0.5-0.8-0.7-1.2c-0.2-0.4-0.4-0.8-0.6-1.1
	c-0.2-0.4-0.4-0.8-0.7-1.2c-0.2-0.4-0.4-0.8-0.6-1.1c-0.2-0.4-0.4-0.8-0.6-1.2c-0.2-0.4-0.4-0.8-0.6-1.2c-0.2-0.4-0.4-0.9-0.6-1.3
	c-0.2-0.4-0.4-0.8-0.5-1.2c-0.2-0.4-0.4-0.9-0.6-1.3c-0.2-0.4-0.3-0.8-0.5-1.2c-0.2-0.4-0.4-0.9-0.5-1.3c-0.2-0.4-0.3-0.8-0.4-1.2
	c-0.2-0.5-0.3-0.9-0.5-1.4c-0.1-0.4-0.3-0.8-0.4-1.2c-0.2-0.5-0.3-0.9-0.4-1.4c-0.1-0.4-0.2-0.8-0.4-1.2c-0.1-0.5-0.3-1-0.4-1.5
	c-0.1-0.4-0.2-0.8-0.3-1.2c-0.1-0.5-0.2-1-0.4-1.5c-0.1-0.4-0.2-0.8-0.3-1.2c-0.1-0.5-0.2-1-0.3-1.5c-0.1-0.4-0.2-0.8-0.2-1.2
	c-0.1-0.5-0.2-1.1-0.3-1.6c-0.1-0.4-0.1-0.8-0.2-1.1c-0.1-0.5-0.2-1.1-0.2-1.6c-0.1-0.4-0.1-0.7-0.2-1.1c-0.1-0.5-0.1-1.1-0.2-1.6
	c-0.1-0.6-0.1-1.2-0.2-1.8c0-0.2,0-0.5-0.1-0.7c-0.1-0.6-0.1-1.3-0.1-1.9c0-0.3,0-0.7,0-1c0-0.5-0.1-1.1-0.1-1.6c0-0.9,0-1.8,0-2.6
	l0-0.8c0-1.8,0-3.6,0.1-5.4c0-0.3,0-0.5,0-0.8c0-0.3,0-0.6,0-0.9c0-1.5,0.1-2.9,0.1-4.3c0-0.5,0.1-1,0.1-1.4
	c0.1-1.4,0.1-2.8,0.2-4.2c0-0.5,0.1-1,0.1-1.5c0.1-1.4,0.2-2.8,0.3-4.2c3.8-42.6,18.6-77.9,42-100.5c0.2-0.2,0.4-0.4,0.6-0.6
	c0.5-0.4,0.9-0.9,1.4-1.3c0.4-0.4,0.8-0.7,1.2-1.1c0.3-0.2,0.5-0.5,0.8-0.7c0.1-0.1,0.1-0.1,0.2-0.2c0,0,0,0,0,0c0,0,0,0,0,0
	c0,0,0,0,0,0c0.7-0.6,1.4-1.2,2.1-1.8c0.1-0.1,0.2-0.2,0.4-0.3c0.6-0.5,1.2-1,1.8-1.4c0.3-0.2,0.6-0.5,0.9-0.7
	c0.4-0.3,0.9-0.6,1.3-1c0.8-0.5,1.5-1.1,2.3-1.6c0,0,0,0,0,0C212.2,109.4,232.9,103.2,256,103.2z M240.3,335.5l-4.5-3l4.4-22.6
	c0.9-4.7-1.7-9.5-6.2-11.2c-23.3-9.1-38.3-31.2-38.3-56.2v-44.2c16.1,9.3,43,20.8,77.1,20.8h43.5v23.4c0,25-15,47-38.3,56.2
	c-0.6,0.2-1.1,0.5-1.6,0.8c-3,1.8-4.8,5.1-4.8,8.7c0,0.6,0.1,1.2,0.2,1.8l1,5.2l3.4,17.4L256,345.8L240.3,335.5z M246,363.1v16.9
	c-12.5,5.3-21.6,5.7-28.3,1.5c-9.3-5.9-14.2-17.3-14.2-25.4c0-3.6,1-6.5,2.5-7.4c0.4-0.3,0.8-0.5,1.2-0.7c0.4-0.2,0.9-0.4,1.4-0.6
	H221c0.4,0.1,0.8,0.3,1.1,0.5c0.3,0.1,0.6,0.2,0.8,0.3c0.6,0.3,1.1,0.6,1.6,0.9L246,363.1z M266,363.1l21.5-14c0,0,0.1,0,0.1-0.1
	c0.5-0.3,1-0.6,1.5-0.8c0.3-0.1,0.6-0.2,0.8-0.3c0.4-0.2,0.7-0.3,1.1-0.4h12.4c0.5,0.2,0.9,0.4,1.4,0.6c0.4,0.2,0.8,0.4,1.2,0.7
	c1.5,1,2.5,3.8,2.5,7.4c0,8.1-4.9,19.5-14.2,25.4c-6.7,4.2-15.7,3.8-28.3-1.5V363.1z M107.6,218.4l-3.8-2.4l3.6-18.5
	c0.9-4.7-1.7-9.5-6.2-11.2C81.7,178.6,69.1,160,69.1,139v-35.9c14.2,7.9,36.9,17,65.2,17h30.8c-0.1,0.1-0.2,0.2-0.3,0.3
	c-0.4,0.4-0.8,0.8-1.1,1.2c-0.6,0.7-1.3,1.3-1.9,2c0,0-0.1,0.1-0.1,0.1c-18.4,20.2-31.2,46.8-37.8,78.6c-0.1,0.7-0.3,1.3-0.4,2
	c-0.1,0.6-0.2,1.1-0.3,1.7c-1.2,6.5-2.2,13.2-3,20l-0.5,0.3L107.6,218.4z M118.9,248.2c0,0.2,0,0.5,0,0.7c0,1,0,2,0,3
	c0,0.4,0,0.8,0,1.1c-1.2,0.1-2.3,0.4-3.4,1c-12.7,6.2-21.9,7.4-27.9,3.6c-7.7-4.9-11.7-14.2-11.7-20.8c0-3,0.8-4.8,1.5-5.3
	c0.3-0.2,0.5-0.3,0.9-0.5c0.2-0.1,0.4-0.2,0.5-0.2h10.8c0.2,0.1,0.5,0.2,0.7,0.3c0.1,0.1,0.3,0.1,0.4,0.2c0.4,0.2,0.8,0.4,1.2,0.6
	l22.5,14.6c0.4,0.3,0.8,0.5,1.2,0.7c0.1,0.1,0.3,0.1,0.4,0.2c0.3,0.1,0.6,0.2,0.9,0.3c0.2,0.1,0.3,0.1,0.5,0.1
	c0.3,0.1,0.6,0.1,0.8,0.2c0.2,0,0.3,0.1,0.5,0.1C118.7,248.2,118.8,248.2,118.9,248.2z M20,150.5v-0.7C20,70.9,59.2,20,119.8,20
	c43.4,0,76.2,25.6,91.1,70.7c-8.5,3-16.5,6.9-24,11.7c0,0-0.1-0.1-0.1-0.1c-0.2-0.2-0.4-0.3-0.6-0.4c-0.1-0.1-0.2-0.1-0.3-0.2
	c-0.2-0.1-0.3-0.2-0.5-0.3c-0.1-0.1-0.2-0.1-0.3-0.2c-0.2-0.1-0.3-0.2-0.5-0.2c-0.1-0.1-0.2-0.1-0.3-0.1c-0.2-0.1-0.3-0.1-0.5-0.2
	c-0.1,0-0.2-0.1-0.4-0.1c-0.2-0.1-0.4-0.1-0.6-0.1c-0.1,0-0.2-0.1-0.4-0.1c-0.2,0-0.4-0.1-0.6-0.1c-0.1,0-0.2,0-0.3,0
	c-0.3,0-0.6,0-1,0h-46.2c-10.2,0-19.6-1.4-27.9-3.6c-25-6.5-40.6-19.4-40.8-19.6c-0.7-0.6-1.6-1.1-2.4-1.5c-2.2-1-4.6-1.1-6.9-0.5
	c-0.5,0.1-0.9,0.3-1.4,0.5c-3.5,1.6-5.8,5.2-5.8,9.1V139c0,26.4,14.4,50.1,37.2,62.3l-1.9,9.6h-7.4H58.6c-0.8,0-1.7,0-2.5,0.1
	c-0.2,0-0.4,0-0.6,0c-0.6,0-1.3,0.1-1.9,0.2c-0.1,0-0.1,0-0.2,0C32.7,198.8,20,175.8,20,150.5z M140.2,349.6H32.8v-92.9
	c0-12.7,9.3-23.3,21.4-25.4c0.2,0,0.3-0.1,0.5-0.1c0.2,0,0.4,0,0.6-0.1c0.2,0,0.5-0.1,0.7-0.1c0.1,0,0.3,0,0.4,0
	c-0.3,1.9-0.5,3.8-0.5,5.9c0,14.6,8.4,29.7,20.9,37.7c6.2,3.9,12.8,5.4,19.1,5.4c9.5,0,18.3-3.2,24-5.8c0.2,0.1,0.4,0.2,0.6,0.2
	c0.1,0.7,0.2,1.3,0.4,2c0.1,0.4,0.2,0.8,0.2,1.1c0.1,0.7,0.3,1.4,0.4,2c0.1,0.4,0.2,0.8,0.3,1.2c0.2,0.7,0.3,1.4,0.5,2.1
	c0.1,0.3,0.2,0.7,0.3,1c0.3,1,0.6,2,0.9,3c0,0.2,0.1,0.3,0.2,0.5c0.3,0.8,0.5,1.7,0.8,2.5c0.1,0.4,0.2,0.7,0.4,1.1
	c0.2,0.6,0.5,1.3,0.7,1.9c0.1,0.4,0.3,0.8,0.4,1.1c0.2,0.6,0.5,1.3,0.7,1.9c0.1,0.4,0.3,0.7,0.4,1.1c0.3,0.7,0.6,1.5,1,2.2
	c0.1,0.2,0.2,0.4,0.3,0.6c0.4,0.9,0.9,1.9,1.3,2.8c0.1,0.3,0.3,0.6,0.5,0.9c0.3,0.6,0.6,1.3,1,1.9c0.2,0.4,0.4,0.7,0.6,1.1
	c0.3,0.6,0.6,1.2,1,1.7c0.2,0.3,0.4,0.7,0.6,1c0.4,0.6,0.7,1.2,1.1,1.8c0.2,0.3,0.3,0.6,0.5,0.8c0.5,0.9,1.1,1.7,1.7,2.6
	c0.1,0.2,0.3,0.4,0.4,0.6c0.4,0.7,0.9,1.3,1.4,2c0.2,0.3,0.4,0.6,0.7,0.9c0.4,0.5,0.8,1.1,1.2,1.6c0.2,0.3,0.5,0.6,0.7,0.9
	c0.4,0.5,0.8,1.1,1.3,1.6c0.2,0.3,0.4,0.6,0.7,0.8c0.6,0.7,1.2,1.4,1.8,2.1c0.1,0.1,0.2,0.2,0.2,0.3c0.7,0.8,1.4,1.5,2.1,2.3
	c0.2,0.2,0.4,0.5,0.7,0.7c0.5,0.5,1,1,1.5,1.6c0.3,0.3,0.5,0.5,0.8,0.8c0.5,0.5,1,1,1.5,1.4c0.3,0.2,0.5,0.5,0.8,0.7
	c0.6,0.5,1.2,1.1,1.8,1.6c0.2,0.2,0.4,0.3,0.6,0.5c0,0,0.1,0.1,0.1,0.1C148.7,338.6,143.8,343.6,140.2,349.6z M358.3,492H153.7
	V373.2c0-4.4,1.1-8.6,3.1-12.2c0,0,0.1-0.1,0.1-0.1c2.8-5.1,7.2-9.1,12.5-11.4c0,0,0.1,0,0.1,0c0.3-0.1,0.7-0.3,1-0.4
	c0.1,0,0.3-0.1,0.4-0.1c0.4-0.1,0.8-0.3,1.3-0.4c0.3-0.1,0.6-0.2,1-0.3c0.2-0.1,0.4-0.1,0.6-0.1c0.3-0.1,0.6-0.1,1-0.2
	c0.2,0,0.4-0.1,0.6-0.1c0.5-0.1,0.9-0.1,1.4-0.2c0,0,0.1,0,0.1,0c0.9-0.1,1.8-0.1,2.7-0.1h5.1c-0.7,2.7-1,5.6-1,8.7
	c0,13.6,7.3,32,23.5,42.3c13.1,8.4,27.9,6.5,39,3v27.7c0,5.5,4.5,10,10,10c5.5,0,10-4.5,10-10v-27.7c5.3,1.7,11.4,3,17.8,3
	c7,0,14.4-1.6,21.2-5.9c0,0,0,0,0,0c16.2-10.3,23.5-28.7,23.5-42.3c0-3.1-0.4-6-1-8.7h5.1c0.9,0,1.8,0,2.7,0.1
	c13,1.3,23.1,12.3,23.1,25.6V492z M364.7,340.6c-2.2-2.1-4.5-4-7-5.7c0,0,0.1-0.1,0.1-0.1c0.2-0.2,0.4-0.3,0.6-0.5
	c0.6-0.5,1.2-1,1.8-1.6c0.3-0.2,0.5-0.5,0.8-0.7c0.5-0.5,1-1,1.5-1.4c0.3-0.3,0.5-0.5,0.8-0.8c0.5-0.5,1-1,1.5-1.6
	c0.2-0.2,0.4-0.4,0.6-0.7c0.7-0.8,1.4-1.5,2.1-2.3c0.1-0.1,0.1-0.1,0.1-0.2c0.6-0.7,1.3-1.5,1.9-2.2c0.2-0.3,0.4-0.5,0.6-0.8
	c0.2-0.2,0.3-0.4,0.5-0.6l18.7,19.1H364.7z M382.5,305.1l0.4-3.3c2.7-5.7,4.9-11.6,6.5-17.7c0,0,0,0,0,0c0-0.2,0.1-0.3,0.1-0.5
	c0,0,0,0,0-0.1c0.2-0.7,0.3-1.3,0.5-2c0-0.2,0.1-0.4,0.1-0.6c0-0.1,0.1-0.3,0.1-0.4c0-0.1,0.1-0.3,0.1-0.4c0.1-0.4,0.2-0.8,0.3-1.2
	c0.1-0.4,0.2-0.8,0.2-1.2c0-0.2,0.1-0.4,0.1-0.6c0-0.1,0.1-0.2,0.1-0.4c0-0.2,0.1-0.4,0.1-0.5c0.1-0.5,0.2-1.1,0.3-1.6
	c0.1-0.3,0.1-0.7,0.2-1c0-0.1,0-0.2,0.1-0.3c0.1-0.6,0.2-1.2,0.3-1.8c0-0.3,0.1-0.5,0.1-0.8c0-0.2,0-0.4,0.1-0.5
	c0-0.2,0.1-0.5,0.1-0.7c0-0.4,0.1-0.7,0.1-1.1c0-0.2,0-0.4,0.1-0.6c0-0.3,0.1-0.6,0.1-0.8c0-0.4,0.1-0.7,0.1-1.1c0-0.2,0-0.3,0-0.5
	c0-0.2,0-0.3,0-0.5c0-0.4,0.1-0.8,0.1-1.2c0-0.4,0.1-0.8,0.1-1.2c0,0,0-0.1,0-0.1c0-0.2,0-0.3,0-0.5c0-0.5,0-1.1,0.1-1.6
	c0-0.3,0-0.7,0-1c0-0.1,0-0.2,0-0.3c0-1,0-2,0-3v-0.8c0,0,0,0,0,0c0-2.1,0-4.2-0.1-6.3c0-0.5,0-0.9,0-1.4c-0.1-2.1-0.1-4.3-0.2-6.4
	l0.1,0c0.6,0.4,1.2,0.7,1.8,1c2.6,1.1,5.7,1.1,8.3-0.2c0.5-0.2,0.9-0.5,1.3-0.8l3.2-2.2l7.1,66.3l-16,16.4L382.5,305.1z M492,340.6
	h-84.1v0l24.3-24.9c2.1-2.1,3.1-5.1,2.8-8.1l-8.8-81.8l4.7-3.3h49c6.6,0,12.1,5.4,12.1,12.1V340.6z"/>
</svg>
