<svg id="Capa_1" data-name="Capa 1" xmlns="http://www.w3.org/2000/svg" viewBox="0 0 464.5601 507.1997"><defs><style>.cls-1{fill:#fff;}</style></defs><path class="cls-1" d="M107.63,291.7852a7.5479,7.5479,0,0,1-5.3687-2.2217l-39.8774-39.878H29.84a26.8611,26.8611,0,0,1-5.0385-.4775,24.1491,24.1491,0,0,1-3.3658-.8672A27.45,27.45,0,0,1,2.4,222.249V29.84A27.3907,27.3907,0,0,1,19.5806,4.4146,27.0516,27.0516,0,0,1,29.84,2.4H439.52a27.5681,27.5681,0,0,1,27.44,27.4458v192.4a27.5427,27.5427,0,0,1-22.4707,26.9707,26.8867,26.8867,0,0,1-4.9717.4692H152.876l-39.8731,39.8731A7.5426,7.5426,0,0,1,107.63,291.7852Zm-39.8628-57.3a7.4566,7.4566,0,0,1,2.6162,1.708l17.5889,17.5893,19.6572,19.646,19.6567-19.6455,17.5806-17.5806a7.5322,7.5322,0,0,1,2.6274-1.7172H439.52a11.9771,11.9771,0,0,0,3.8623-.6373,12.2767,12.2767,0,0,0,8.3789-11.5913V29.84A12.2939,12.2939,0,0,0,439.5254,17.6H29.8354A12.282,12.282,0,0,0,17.6,29.8354v192.42a12.2823,12.2823,0,0,0,12.2358,12.23Z" transform="translate(-2.3999 -2.3999)"/><path class="cls-1" d="M66.7505,92.4385a7.6,7.6,0,0,1,0-15.2h74.2412a7.6,7.6,0,0,1,.001,15.2H66.7505Z" transform="translate(-2.3999 -2.3999)"/><path class="cls-1" d="M66.7505,133.5767a7.6,7.6,0,0,1,0-15.2H197.19a7.6,7.6,0,1,1,.0014,15.2Z" transform="translate(-2.3999 -2.3999)"/><path class="cls-1" d="M66.7505,173.7793a7.6,7.6,0,0,1,0-15.2H279.1289a7.5988,7.5988,0,0,1,7.542,7.6436,7.6267,7.6267,0,0,1-7.5508,7.5566Z" transform="translate(-2.3999 -2.3999)"/><path class="cls-1" d="M361.73,509.6a7.5447,7.5447,0,0,1-5.3721-2.2256L316.4844,467.5H171.8667a26.8,26.8,0,0,1-4.9629-.4687,27.5451,27.5451,0,0,1-22.477-26.9786V324.3945c.038-15.6611,12.9047-27.4052,24.3837-27.4394H436.4561c7.0009.01,10.3857.81,13.3134,2.01a27.3969,27.3969,0,0,1,17.19,25.4346V440.07a27.4364,27.4364,0,0,1-19.0108,26.0762,24.1026,24.1026,0,0,1-3.37.8721,26.8715,26.8715,0,0,1-5.06.4814H406.9756L367.37,507.1055l-.1045.0537-.2412.291A7.5443,7.5443,0,0,1,361.73,509.6Zm-39.8633-57.2988a7.5,7.5,0,0,1,2.6211,1.7109l17.585,17.586,19.6582,19.6445,19.6562-19.6445,17.58-17.58a7.4551,7.4551,0,0,1,2.625-1.7168H439.52a12.2852,12.2852,0,0,0,12.2412-12.2237V324.3945a12.2847,12.2847,0,0,0-12.2373-12.24H171.8608a12.2925,12.2925,0,0,0-12.2338,12.2344V440.06a12.2823,12.2823,0,0,0,8.3891,11.6064,11.9538,11.9538,0,0,0,3.8506.6348Z" transform="translate(-2.3999 -2.3999)"/><path class="cls-1" d="M328.4355,369.0947a7.5975,7.5975,0,0,1-7.5166-7.6621,7.6336,7.6336,0,0,1,7.5372-7.5371h74.2226a7.6,7.6,0,1,1,0,15.1992Z" transform="translate(-2.3999 -2.3999)"/><path class="cls-1" d="M272.2383,410.2334a7.6,7.6,0,1,1,.001-15.1992H402.6787a7.6,7.6,0,0,1,0,15.1992Z" transform="translate(-2.3999 -2.3999)"/></svg>