<svg id="Capa_1" data-name="Capa 1" xmlns="http://www.w3.org/2000/svg" viewBox="0 0 464.3433 401.0923"><defs><style>.cls-1{fill:#fff;}</style></defs><path class="cls-1" d="M70.1235,55.793a7.4395,7.4395,0,0,1,.0025-14.8789H312.0693a7.42,7.42,0,0,1,5.4571,2.4062l.1025.1055a6.6169,6.6169,0,0,1,1.416,7.4995l-.0537.1269a7.4023,7.4023,0,0,1-6.9258,4.7408H70.1235Z" transform="translate(-2.3999 -2.3999)"/><path class="cls-1" d="M344.8613,55.13a7.4327,7.4327,0,0,1-7.4287-7.4375v-1.18a7.4192,7.4192,0,0,1,12.8838-5.0381l.1025.105a6.6509,6.6509,0,0,1,2.0264,4.7647v1.1777a6.5425,6.5425,0,0,1-.5967,2.7383l-.0537.1274a7.3874,7.3874,0,0,1-6.93,4.7427Z" transform="translate(-2.3999 -2.3999)"/><path class="cls-1" d="M371.9355,55.13a7.4416,7.4416,0,0,1-7.4287-7.4375v-1.18a7.4188,7.4188,0,0,1,12.8819-5.0395l.1025.1054a6.6467,6.6467,0,0,1,2.0283,4.7657v1.1777a6.5426,6.5426,0,0,1-.5966,2.7392l-.0547.128A7.387,7.387,0,0,1,371.94,55.13Z" transform="translate(-2.3999 -2.3999)"/><path class="cls-1" d="M399.0088,55.13a7.4413,7.4413,0,0,1-7.4277-7.4375v-1.18a7.4183,7.4183,0,0,1,12.88-5.041l.1036.1059a6.6486,6.6486,0,0,1,2.0293,4.7667v1.1777a6.53,6.53,0,0,1-.5977,2.7388l-.0557.1313a7.3848,7.3848,0,0,1-6.9267,4.7383Z" transform="translate(-2.3999 -2.3999)"/><path class="cls-1" d="M27.7817,403.4922A25.5905,25.5905,0,0,1,2.4,378.1016V27.7813A25.5905,25.5905,0,0,1,27.791,2.4H441.3623A25.59,25.59,0,0,1,466.7432,27.791v350.33a25.59,25.59,0,0,1-25.3907,25.3711H27.7817ZM183.7651,92.4575c-56.4868,0-114.7631.0825-164.0942.2329l-2.3926.0074V378.1113a10.5936,10.5936,0,0,0,10.4922,10.5039H441.3623A10.5666,10.5666,0,0,0,451.8652,378.13V92.6592l-2.3818-.0181c-15.9551-.1221-31.9014-.1836-47.3975-.1836-14.4843,0-29.1777.0547-43.6718.1626l-.167.0015-.1641.0239a7.0327,7.0327,0,0,1-.9941.0742l-7.8848-.0268-2.9951.0268c-.1865,0-.3819-.0161-.5772-.0312l-.0879-.0069h-.0888C298.0186,92.5371,240.5957,92.4575,183.7651,92.4575ZM27.7813,17.2783a10.5912,10.5912,0,0,0-10.503,10.4922V77.8193l2.4072-.0073c49.1548-.15,107.4356-.2324,164.1065-.2324,56.9512,0,115.68.0835,165.3672.2349,17.8135-.1558,35.6172-.2349,52.9443-.2349,15.6045,0,31.5322.062,47.3428.1836l2.4189.0185v-50a10.5782,10.5782,0,0,0-10.4931-10.503Z" transform="translate(-2.3999 -2.3999)"/><path class="cls-1" d="M303.6367,359.1992a11.7858,11.7858,0,0,1-11.749-11.7949V249.2959l-.9043-.7207a71.0854,71.0854,0,1,1,97.0244-103.2783,69.85,69.85,0,0,1,14.1475,72.1347,71.09,71.09,0,0,1-22.3379,31.0342l-.9014.7207v98.044a10.9692,10.9692,0,0,1-.9814,4.5879,11.9786,11.9786,0,0,1-1.8946,3.1494,11.7763,11.7763,0,0,1-9.0478,4.2177h0a11.8065,11.8065,0,0,1-7.5713-2.7558l-24.09-20.2276-24.084,20.2256a11.7924,11.7924,0,0,1-7.59,2.7715Zm31.6963-39.208a7.0428,7.0428,0,0,1,4.5215,1.6455l24.8633,20.875v-84.62l-3.2832,1.2979a70.9737,70.9737,0,0,1-52.07.0478l-3.2784-1.2891v84.4493l24.7246-20.7588A7.0439,7.0439,0,0,1,335.333,319.9912Zm.0195-184.9463a58.0235,58.0235,0,0,0-.0361,116.0469h.0488a58.0235,58.0235,0,1,0-.0127-116.0469Z" transform="translate(-2.3999 -2.3999)"/><path class="cls-1" d="M329.5205,218.7041a7.4389,7.4389,0,0,1-5.2617-2.1748L299.375,191.6479a7.44,7.44,0,0,1,10.5918-10.45l19.5469,19.5464,31.2-31.1992a7.4383,7.4383,0,0,1,10.5175,0l.2735.3057.1426.1347a6.6828,6.6828,0,0,1,1.3271,7.33l-.0508.125a7.3476,7.3476,0,0,1-1.6914,2.624l-36.459,36.46a7.4213,7.4213,0,0,1-5.2324,2.18Z" transform="translate(-2.3999 -2.3999)"/></svg>