<svg id="Capa_1" data-name="Capa 1" xmlns="http://www.w3.org/2000/svg" viewBox="0 0 370.8647 506.3882"><defs><style>.cls-1{fill:#fff;}</style></defs><path class="cls-1" d="M115.8389,474.3117a9.4184,9.4184,0,0,0-9.3775,9.377l-.0093.2636a9.5669,9.5669,0,0,0,9.375,9.7188l144.01.001a9.4178,9.4178,0,0,0,9.3809-9.378c.0058-.1015.0078-.1933.0087-.2842a9.5561,9.5561,0,0,0-9.372-9.6972Zm.0044,34.4766a24.6209,24.6209,0,0,1-24.4991-24.503,25.3025,25.3025,0,0,1,6.67-17.2353l1.3276-1.4483-1.1572-1.5878a24.2034,24.2034,0,0,1-4.6729-14.2081,23.2161,23.2161,0,0,1,9.15-18.8847l1.0791-.8174-.1421-1.3467c-2.2959-21.7929-20.1089-47.1826-34.4219-67.584l-.0825-.1181c-7.23-10.3164-14.0537-20.0508-19.2759-29.2891C20.5742,280.0109,2.4072,219.4484,2.4072,173.7131,2.4072,77.65,83.8589,2.4,187.84,2.4a7.5659,7.5659,0,0,1,7.5581,7.5586V146.0959H231.103V100.675l-1.5117-.6026a24.6,24.6,0,0,1-13.6875-13.6875,24.498,24.498,0,1,1,31.8272,13.6875l-1.5118.6026v45.4219h17.8526a7.5543,7.5543,0,0,1,7.5576,7.5581v17.8525h27.2353V143.0266l-1.5117-.6026a24.6013,24.6013,0,0,1-13.6885-13.689,24.5,24.5,0,1,1,31.8282,13.6895l-1.5117.6025v36.0381a7.58,7.58,0,0,1-7.5586,7.5586h-34.793v35.7041H325.522l.6015-1.5151a24.4232,24.4232,0,1,1,.001,18.1338l-.6064-1.503H271.6294v17.8526a7.5787,7.5787,0,0,1-7.5586,7.5576h-34.792v18.7646h26.3223a7.5651,7.5651,0,0,1,7.5586,7.5586v19.0967l1.5117.6026a24.4972,24.4972,0,1,1-18.14,0l1.5118-.6026v-11.539H221.72a7.5666,7.5666,0,0,1-7.5576-7.5577V262.8537H195.3979V425.9094l62.3819-.003c.2832-.0136.624-.0224.9658-.0224a23.4716,23.4716,0,0,1,23.4219,23.3388,25.2215,25.2215,0,0,1-4.708,14.6983l-1.1436,1.6035,1.3506,1.4346a24.4372,24.4372,0,0,1,6.668,16.74l.0049.2891a24.728,24.728,0,0,1-24.502,24.8Zm1.3256-67.8076a8.5245,8.5245,0,0,0-8.54,8.2041l-.0093.28a9.5566,9.5566,0,0,0,9.376,9.73l139.6738.001a9.4218,9.4218,0,0,0,9.3819-9.3779,8.3825,8.3825,0,0,0-.0362-.9522,8.5841,8.5841,0,0,0-8.6025-7.8721c-.2754,0-.5332.0118-.79.0333l-139.57-.001c-.1967-.0186-.3427-.0283-.49-.0362C117.4145,440.9846,117.1689,440.9807,117.1689,440.9807ZM177.76,17.7736C86.41,22.425,17.5239,89.4641,17.5239,173.7131c0,42.62,17.8418,101.7383,45.4551,150.6123,4.8789,8.6367,11.522,18.1084,18.5557,28.1367,15.4048,21.9648,32.8613,46.8555,36.7285,71.4209l.3188,2.0273h61.7022V330.3332l-2.2041-.1807c-2.0279-.167-3.86-.3506-5.6-.5625a7.5524,7.5524,0,0,1-6.48-5.95l-2.6939-12.8242-1.4653-.36c-1.4893-.3672-3.01-.7764-4.5195-1.2168l-1.4507-.4239-8.8218,9.8379a7.5732,7.5732,0,0,1-8.5932,1.9121,126.5274,126.5274,0,0,1-26.46-15.4629,7.5675,7.5675,0,0,1-2.63-8.3945l4.0654-12.3691-1.0913-1.0459c-1.11-1.0635-2.1953-2.1494-3.3188-3.3194l-1.0459-1.0879L95.6011,282.95a7.592,7.592,0,0,1-8.3946-2.63,126.5189,126.5189,0,0,1-15.46-26.4692,7.56,7.56,0,0,1,1.9131-8.5884l9.8452-8.8169-.4243-1.4522c-.4327-1.48-.8365-2.9751-1.2007-4.4453l-.3662-1.478-13.7349-2.7422a7.6064,7.6064,0,0,1-6.0786-7.416V190.0339a7.6068,7.6068,0,0,1,6.0825-7.4121l13.73-2.7412.3657-1.4795c.3638-1.4717.7676-2.9663,1.2-4.4429l.4258-1.4526-9.8433-8.8179a7.545,7.545,0,0,1-1.9111-8.5908A126.4812,126.4812,0,0,1,87.208,128.63a7.6023,7.6023,0,0,1,8.398-2.628l12.3706,4.0645,1.0459-1.0889c1.1045-1.15,2.2212-2.2661,3.3193-3.3178l1.0923-1.0455-4.0659-12.3877A7.5554,7.5554,0,0,1,112,103.8347a126.8067,126.8067,0,0,1,26.46-15.45,7.5418,7.5418,0,0,1,8.5859,1.9126l8.8237,9.8383,1.45-.4223c1.52-.4429,3.0406-.8521,4.5215-1.2173l1.4639-.36,2.6987-12.832a7.553,7.553,0,0,1,6.48-5.9414c1.7476-.2139,3.5772-.3979,5.5947-.5625l2.2046-.18V17.6452ZM255.6,322.1457a9.3834,9.3834,0,1,0,.0019,0ZM153.56,292.5041a7.6457,7.6457,0,0,1,2.56.4424,93.0792,93.0792,0,0,0,14.897,4.0176,7.5785,7.5785,0,0,1,4.8872,3.1425l4.3769,6.3594v-27.05l-2.0908-.2715a75.2868,75.2868,0,0,1,0-149.34l2.0908-.2715V102.4846l-4.3769,6.3608a7.5637,7.5637,0,0,1-4.8814,3.14,92.9741,92.9741,0,0,0-14.91,4.0191,7.5872,7.5872,0,0,1-8.1861-2.0762l-8.4384-9.4121-1.6475.8467a112.3365,112.3365,0,0,0-10.8691,6.3848l-1.52,1.0117,3.8911,11.8559a7.4765,7.4765,0,0,1-2.2822,8.107,96.3141,96.3141,0,0,0-10.959,10.97,7.6,7.6,0,0,1-8.1255,2.2876L96.123,142.08l-1.0122,1.5224a113.1159,113.1159,0,0,0-6.3828,10.8745l-.8476,1.6485,9.414,8.4316a7.4917,7.4917,0,0,1,2.0752,8.1807,93.9169,93.9169,0,0,0-4.0176,14.915,7.551,7.551,0,0,1-5.9526,6.0679l-12.584,2.5132V212.717L89.39,215.2316a7.5489,7.5489,0,0,1,5.96,6.0576,93.8775,93.8775,0,0,0,4.02,14.9126,7.5058,7.5058,0,0,1-2.0659,8.1812l-9.4243,8.4424.8462,1.6479a111.7987,111.7987,0,0,0,6.3877,10.8784l1.0127,1.52,11.853-3.9014a7.5964,7.5964,0,0,1,8.124,2.29,94.1172,94.1172,0,0,0,10.9444,10.9415,7.4877,7.4877,0,0,1,2.3017,8.1269l-3.8969,11.8633,1.519,1.0117a111.5311,111.5311,0,0,0,10.8735,6.3848l1.647.8457,8.44-9.4121A7.5654,7.5654,0,0,1,153.56,292.5041Zm23.9111-147.2666a60.1243,60.1243,0,0,0,0,118.4746l2.81.4883V144.7492Zm17.9267,102.5h61.1163V161.2121H195.3979Zm153.375-27.2344a9.3821,9.3821,0,1,0,9.3829,9.3828A9.393,9.393,0,0,0,348.7729,220.5031ZM306.42,110.39a9.3859,9.3859,0,1,0,.0029,0ZM238.6606,68.04a9.3821,9.3821,0,1,0,9.3829,9.3843A9.3926,9.3926,0,0,0,238.6606,68.04Z" transform="translate(-2.4072 -2.4001)"/></svg>