<svg id="Layer_1" data-name="Layer 1" xmlns="http://www.w3.org/2000/svg" viewBox="0 0 590.4995 523.9995"><defs><style>.cls-1{fill:#fff;}</style></defs><path class="cls-1" d="M523.8984,483.333A15.56,15.56,0,0,1,515.93,481.14l-36.0322-21.5371-36.0332,21.64A16.011,16.011,0,0,1,436,483.3a15.6862,15.6862,0,0,1-9.11-2.957,15.4976,15.4976,0,0,1-6.05-16.0088l9.3165-41.0977-31.6749-27.7422a15.6124,15.6124,0,0,1,8.754-27.3056l41.8085-3.8291,16.5635-38.7149a15.5383,15.5383,0,0,1,28.584-.0068l16.5664,38.7246,41.8291,3.7285a15.6045,15.6045,0,0,1,8.835,27.3008l-31.5781,27.7471,9.3154,41.0918a15.6331,15.6331,0,0,1-15.2608,19.1025Zm-43.749-39.1836a7.0372,7.0372,0,0,1,3.6162,1.0078l42.5244,25.38L515.24,422.166a7.0242,7.0242,0,0,1,2.25-6.8681l37.2-32.6905-49.2773-4.3984a7.1309,7.1309,0,0,1-5.9151-4.2715l-19.499-45.7627L460.5918,373.76a7.1155,7.1155,0,0,1-5.8965,4.249l-49.2695,4.6221,37.292,32.6738a7.0179,7.0179,0,0,1,2.2461,6.8457l-10.94,48.3779L476.5293,445.16A7.041,7.041,0,0,1,480.1494,444.1494Z" transform="translate(-1.1997 -6.1997)"/><path class="cls-1" d="M436,284.3994a15.6963,15.6963,0,0,1-9.1113-2.956,15.4986,15.4986,0,0,1-6.0489-16.0088l9.3165-41.0982-31.6749-27.7422a15.6128,15.6128,0,0,1,8.754-27.3061l41.8085-3.8286,16.5635-38.7158a15.5385,15.5385,0,0,1,28.584-.0064l16.5664,38.7261,41.8291,3.727a15.605,15.605,0,0,1,8.835,27.3013l-31.377,27.6494,9.3145,41.09A15.6328,15.6328,0,0,1,516.1309,282.14l-36.0342-21.5375-36.0322,21.64A16.3411,16.3411,0,0,1,436,284.3994ZM480.1494,245.25a7.0267,7.0267,0,0,1,3.6152,1.0083L526.29,271.6377l-11.05-48.3726a7.0231,7.0231,0,0,1,2.25-6.8672l37.2-32.6909L505.4131,179.31a7.1311,7.1311,0,0,1-5.9151-4.272l-19.499-45.7622L460.5918,174.86a7.1146,7.1146,0,0,1-5.8965,4.249l-49.2695,4.6225,37.292,32.6739a7.0165,7.0165,0,0,1,2.2461,6.8447l-10.94,48.3789,42.5049-25.3677A7.0376,7.0376,0,0,1,480.1494,245.25Z" transform="translate(-1.1997 -6.1997)"/><path class="cls-1" d="M8.8,530.1992A7.6,7.6,0,1,1,8.8,515H52.2476l-3.9195-4.0664A73.7368,73.7368,0,0,1,27.6,459.5V345.7a64.5731,64.5731,0,0,1,64.5-64.5h38a11.3632,11.3632,0,0,0,11.3-11.4v-6.3384l-1.1382-.7031A97.2586,97.2586,0,0,1,95.17,195.127,103.8,103.8,0,0,1,94,179.7V89.6a64.506,64.506,0,0,1,58.81-64.2095l1.1313-.0991.6406-.9375A41.75,41.75,0,0,1,189.1,6.2h35.7a83.4941,83.4941,0,0,1,83.3994,83.4v22.1A13.9154,13.9154,0,0,1,294.3,125.6h-5.1v54.1a101.7988,101.7988,0,0,1-1.1724,15.4346,97.5234,97.5234,0,0,1-54.2661,72.7011l-1.3618.6534V270a11.2812,11.2812,0,0,0,11.3,11.1006h27.9a64.1529,64.1529,0,0,1,59.8716,40.4912l23.6,59.0977L408.7754,514.9H584.1a7.65,7.65,0,0,1,0,15.2988ZM291.4,391.1a5.2783,5.2783,0,0,0-3.7978,1.6045A5.468,5.468,0,0,0,286,396.6V396.7a5.0459,5.0459,0,0,0,.3237,1.6592l.0484.1318L332.9756,514.9h59.47L342.9248,391.1ZM286,450.9v64h30.543l-25.9141-64.89ZM92.1,296.3a49.3558,49.3558,0,0,0-49.3,49.3V375.9H88.6a20.6234,20.6234,0,0,1,20.6,20.6v55.3008H211.1A45.5505,45.5505,0,0,1,256.6,497.3V514.9h14.2V397.1A20.4867,20.4867,0,0,1,291.3,375.9h45.4434L317.3281,327.31A48.9161,48.9161,0,0,0,271.6,296.3H248.4292l-.6675,1.3106a66.7568,66.7568,0,0,1-59.76,36.5927,68.1234,68.1234,0,0,1-9.563-.6787c-17.3321-2.5039-33.5967-12.3691-44.6187-27.0644L126.2,296.3Zm-49.3,163A58.6878,58.6878,0,0,0,81.9048,514.665l.3862.1358H241.5V497.2a30.3345,30.3345,0,0,0-30.3-30.3008H107.9A13.9154,13.9154,0,0,1,94,453V396.4a5.4065,5.4065,0,0,0-5.4-5.4H42.8ZM156.2261,273.748a27.5609,27.5609,0,0,1-11.3272,18.1026l-2.0176,1.45,3.22,4.167c8.7026,11.5342,21.3432,19.2363,34.665,21.1093A51.9447,51.9447,0,0,0,231.1914,296.14l1.4419-2.1425-2.2422-1.2813a24.9913,24.9913,0,0,1-5.2944-4.1133,27.7169,27.7169,0,0,1-6.9741-12.3066l-.4673-1.7959H215.8a2.76,2.76,0,0,0-.7207.1h-.2446l-.3194.16a3.9663,3.9663,0,0,0-.5566.1523c-1.1289.2813-2.1982.5449-3.2534.7207l-.1836.03-.4019.1367h-.0927l-.2666.0615c-1.2168.2813-2.4786.4737-3.6729.6446a5.5512,5.5512,0,0,0-.63.0771l-.1308.02h-.0918l-.0176.0039c-.688.0528-1.3491.1309-2.0107.211-.5894.07-1.1783.1416-1.7911.1894l-.4658.0361-.1435.0713-3.9912.2842H195.814l-.086.0069c-1.3139.0937-2.6323.0937-4.0278.0937-.6172,0-1.21-.0244-1.8037-.0479-.5728-.0234-1.1455-.0458-1.7359-.0507a6.396,6.396,0,0,0-1.2436-.1006c-.4971-.0469-.9727-.0733-1.4482-.0977-.4361-.0234-.8721-.0459-1.3311-.0908l-.1187-.0127H183.9c-.0195-.0029-.09-.0156-.1616-.0254-.2432-.0342-.4868-.0625-.7061-.0713l-.2173-.0175c-1.0874-.0909-2.2114-.1846-3.22-.3526l-.2031-.0332a3.7087,3.7087,0,0,0-.499-.085c-.5347-.0947-1.0484-.1679-1.562-.2412-.4541-.0654-.9082-.13-1.3809-.2129a5.7157,5.7157,0,0,0-.7847-.1445,2.6087,2.6087,0,0,1-.2861-.0449l-.1675-.042-.1719-.0166a22.7226,22.7226,0,0,1-2.2475-.3809l-.3071-.0615a5.8043,5.8043,0,0,0-.6426-.1377l-.1338-.0244-.0869-.0283-3.5664-.89a5.5371,5.5371,0,0,0-.5869-.1435l-.1138-.0244-.14-.0469-.1435-.0283a21.7207,21.7207,0,0,1-2.12-.5752l-.6714-.2012c-.1753-.0439-.3281-.0879-.481-.1309-.1782-.0507-.3569-.1015-.5566-.1533-.45-.1357-.8989-.2939-1.3486-.4511-.481-.169-.9629-.337-1.4439-.4854-.1177-.05-.2212-.0869-.3242-.1211l-2.9126-1.4678Zm-23.6411-139.76a3.1883,3.1883,0,0,0-.8418.3545,26.9011,26.9011,0,0,1-2.8633,1.3017c-.1387.0454-.3057.1109-.4722.1778-.0835.0332-.167.0678-.2671.101l-3.36,1.2212L109.1,142.37V179.6a79.9325,79.9325,0,0,0,1.0327,13.0942,82.8012,82.8012,0,0,0,73.54,68.5948l5.4609.311H191.7a82.4038,82.4038,0,0,0,81.47-69.4233A79.8913,79.8913,0,0,0,274.2,179.1V124.8h-3.042l-.2236-.0107c-1.9942-.0948-4.0567-.1929-6.0069-.3785l-.1132-.0107h-.3l-6.3-.6H258.1c-.019-.0039-.09-.0156-.16-.0259-.2368-.0342-.4741-.0615-.6889-.0708-1.78-.1719-3.4932-.418-5.3057-.6782l-.604-.0864c-.2475-.0542-.4951-.0889-.7427-.12a2.5863,2.5863,0,0,1-.3154-.0468l-.1206-.03-.123-.0176c-2.2417-.32-4.1353-.6094-6.09-.9814l-.2226-.0425h-.1372a4.76,4.76,0,0,0-.6636-.0933c-1.91-.29-3.8638-.6816-5.7544-1.06l-.2334-.0464h-.1372c-.1226-.0273-.2612-.0562-.4185-.0757-.9052-.2129-1.8095-.4092-2.706-.6035-1.1167-.2422-2.22-.481-3.2945-.749l-7.1191-1.78c-.1572-.05-.332-.1006-.5068-.15-.14-.04-.2793-.0791-.399-.1191l-.0976-.03c-1.0449-.2989-2.065-.5972-3.085-.896-1.03-.3013-2.06-.603-3.1152-.9043L210.353,113.39l-.07-.0175c-.146-.0367-.31-.0943-.4741-.149-.2559-.0854-.5122-.1684-.7451-.23-1.81-.5713-3.6778-1.1621-5.3936-1.83L203.25,111h-.084l-.167-.063c-1.6982-.6-3.2993-1.1645-4.917-1.8281-.2461-.1177-.4917-.2134-.7382-.3057a3.7879,3.7879,0,0,1-.37-.1494l-.1-.05-.1045-.04c-1.7422-.6773-3.5434-1.3779-5.2949-2.1563l-.1055-.0468-.1093-.0362c-.024-.0117-.0791-.042-.1353-.07a6.6594,6.6594,0,0,0-.6357-.2847l-4.6739-2.0449c-.2231-.1094-.4218-.1958-.6211-.2812-.1337-.0572-.268-.1138-.4213-.19-.7373-.3686-1.4756-.7217-2.2076-1.0708-1.0649-.5088-2.0708-.9892-3.042-1.5034l-.2578-.1362-.2827-.0708a2.7823,2.7823,0,0,1-.2583-.1358c-.1118-.0595-.2275-.1211-.3511-.1826-.789-.3945-1.5537-.79-2.3183-1.1841-.7857-.4057-1.5708-.811-2.3814-1.2158l-.1528-.0766-.06-.02a5.2031,5.2031,0,0,0-.6044-.32c-.8121-.4746-1.6236-.9287-2.4356-1.3823-.8345-.4663-1.6689-.9326-2.5034-1.4234l-.0723-.0429-.0752-.0371a3.6879,3.6879,0,0,0-.4941-.2974l-1.5483-.7754-1.2242,1.2241a2.5545,2.5545,0,0,0-.769,1.45c-.3057,1.1075-.5747,1.9615-.8892,2.8272l-.1445.397V99.64l-.0772.2017c-.28.8394-.6718,1.8193-1.0512,2.7666l-.1719.43v.0254c-.1421.3169-.2769.626-.41.93-.2739.6274-.5356,1.23-.8369,1.8335-.0771.1547-.1553.3418-.2309.53-.0249.0625-.1509.3521-.1509.3521a18.923,18.923,0,0,1-.8667,1.7617c-.1528.2861-.3052.5723-.4517.8589-.0151.022-.0293.0439-.0425.0649l-.0454.0454-.1635.2945c-.4927.8867-.9541,1.7177-1.4986,2.5346l-.0825.1236-.0185.0371a5.2362,5.2362,0,0,0-.3536.52c-.2685.3989-.5576.7978-.8462,1.1973-.331.4589-.6621.9179-.97,1.3769a3.3719,3.3719,0,0,0-.4282.5357c-.2588.3413-.5176.6645-.7759.9873-.3164.396-.6328.7915-.9492,1.2138l-.0488.0655a3.36,3.36,0,0,0-.4082.5058c-.3775.4746-.7974.9321-1.24,1.4141-.2695.2939-.5356.584-.7885.874l-.2017.2305-.064.1269c-.04.0415-.0825.0821-.124.1241-.2432.2431-.4858.497-.7319.7543-.46.4825-.8955.938-1.3526,1.3374l-.2617.2549c-.2685.2364-.5376.4829-.81.7329-.5186.4756-1.0079.9248-1.52,1.3238l-.1182.0918-.106.1054a4.8784,4.8784,0,0,0-.6.5,14.943,14.943,0,0,1-1.62,1.33c-.2021.1514-.4057.3032-.6094.46a3.7114,3.7114,0,0,0-.6308.4756c-.4981.3667-1.0064.7007-1.5879,1.083l-.5938.3921a4.6887,4.6887,0,0,0-.5.3374c-.0069.0054-.0083.0078-.0064.0078a.1144.1144,0,0,0,.0239-.01l-.1128.064c-.2851.1714-.562.3423-.8354.5107-.6558.4048-1.2749.7871-1.9028,1.1011l-.6924.3482C134.0513,133.2373,133.3066,133.6509,132.585,133.9883ZM109.2,126.4438l10.8677-3.67A44.8989,44.8989,0,0,0,150.8,80.1V40.82l-2.9111.6348A49.5667,49.5667,0,0,0,109.1,89.6V92h.1Zm107.6143-26.4423c.6044.2,1.2089.3759,1.8129.5522.5713.1665,1.1426.3325,1.7139.523A219.9464,219.9464,0,0,0,281.6768,110.4H293V89.5a68.277,68.277,0,0,0-68.2-68.2H189.1a26.8107,26.8107,0,0,0-22.8355,12.7275l-.3647.5835v41.09l.9614.72a7.7744,7.7744,0,0,0,.9229.5767,3.2411,3.2411,0,0,1,.376.2226l.1728.1294.1929.0967a6.7118,6.7118,0,0,1,.9331.5732l.12.09.13.0747c.3271.187.6308.374.935.561.3457.2129.6919.4258,1.0645.6382.1255.0762.2817.1787.4306.2754.3223.21.6221.3994.918.5527.3218.1851.6646.3907,1.0078.5967.39.2339.78.4678,1.1436.6753l.1167.0625c.1577.0791.2954.1592.4336.2378.2119.1211.4243.2412.6665.3623l3.2251,1.7607c1.2373.6206,2.2881,1.1939,3.4,1.8.2348.1187.3721.1988.51.2779.211.1206.4229.2407.6641.3613.3828.1914.74.3818,1.0967.5723.34.1811.68.3623,1.0366.5434a8.5724,8.5724,0,0,0,1.21.6611l.3863.1832c.3081.1318.6152.2871.9233.4414.3433.1713.6875.3422,1.0308.4951a12.7909,12.7909,0,0,0,1.7.7856c.2739.1187.58.26.8852.4009.3.1387.6011.2773.9195.416a12.8653,12.8653,0,0,0,1.6958.7837c.2714.1172.5752.2578.8794.398.3022.14.6045.2788.9248.4184a12.9126,12.9126,0,0,0,1.6884.7808c.3321.1426.6841.2783,1.0362.414.2978.1143.5957.2286.9165.3658l.0913.039.0942.0318c.543.1811.9966.3632,1.4492.5439.3438.148.6968.2842,1.05.42.2969.1143.5943.2281.9141.3653l.0928.04.0957.0317c.5449.1812,1,.3638,1.4531.5454.355.1524.751.2955,1.1475.4371.3032.1084.6074.2153.9106.3457l1.5542.6225c.39.1465.7119.2573,1.0239.3643.3692.1264.7217.2451,1.0733.3921a7.5608,7.5608,0,0,0,1.0371.3862c.1509.0474.3091.0942.4658.1572.4922.1851.9336.3242,1.3755.4624.3579.1118.7163.2227,1.0737.3565l.1284.0483.1324.0332a3.2315,3.2315,0,0,1,.34.1187C216.31,99.8418,216.5625,99.9321,216.8145,100.0015Z" transform="translate(-1.1997 -6.1997)"/></svg>