<svg id="Capa_1" data-name="Capa 1" xmlns="http://www.w3.org/2000/svg" viewBox="0 0 512 442.05598"><defs><style>.cls-1{fill:#fff;}</style></defs><path class="cls-1" d="M484.662,0H428.31l-.02057.001H27.338A27.36814,27.36814,0,0,0,0,27.34V425.489a16.58611,16.58611,0,0,0,16.568,16.567H128.82941l.02057-.001H495.432A16.58608,16.58608,0,0,0,512,425.488V27.34A27.3697,27.3697,0,0,0,484.662,0ZM430.34,215.36786a2.54577,2.54577,0,0,1-2.55,2.54h-4c-6.02-9.36-12.63-18.57-18.83-26.78a14.60516,14.60516,0,0,0-23.32,0c-6.2,8.21-12.81,17.42-18.84,26.78H84.21a2.54579,2.54579,0,0,1-2.55-2.54v-78.24a2.54791,2.54791,0,0,1,2.54581-2.55H427.79a2.54793,2.54793,0,0,1,2.55,2.54584v78.24415Zm-49.49,2.54c3.78-5.55,7.95-11.35,12.45-17.33,4.5,5.97,8.67,11.78,12.44,17.33,3.59,5.24,6.82,10.27,9.69,15a176.71355,176.71355,0,0,1,10.59,19.96c-28.02,7.33-48.51-1.73-60.43-10.19,1.66-3.09,3.53-6.36,5.6-9.77,2.85-4.74,6.09-9.76,9.66-15Zm-21.73,38.53a83.28706,83.28706,0,0,0,46.56,14.2,94.60677,94.60677,0,0,0,24.62-3.37994c.03.37994.04.74.04,1.08a37.04,37.04,0,0,1-74.08.04763v-.04763C356.26,265.31788,357.25,261.27784,359.12,256.43787Zm8.88,69.28a25.19287,25.19287,0,0,1,2.36-10.68,51.92212,51.92212,0,0,0,45.87,0,25.13421,25.13421,0,0,1,2.37,10.68V427.055H368ZM496.999,425.488a1.569,1.569,0,0,1-1.568,1.567H433.6V325.71784a39.98557,39.98557,0,0,0-4.91-19.28,51.88785,51.88785,0,0,0,16.65-38.1,42.96568,42.96568,0,0,0-2.17-12.38995,6.74637,6.74637,0,0,0-.22-.73c-.03-.09-.07-.18-.1-.27a130.86689,130.86689,0,0,0-10.38-22.68,17.56846,17.56846,0,0,0,12.87006-16.9v-78.24a17.56624,17.56624,0,0,0-17.55-17.55H84.21a17.56626,17.56626,0,0,0-17.55,17.55005v78.24a17.56408,17.56408,0,0,0,17.55005,17.54H353.76c-7.37,13.3-12.5,25.94-12.5,35.43a51.91012,51.91012,0,0,0,16.65,38.11,40.17451,40.17451,0,0,0-4.91,19.27V427.055H114.974l-.02057.001H16.568A1.56906,1.56906,0,0,1,15,425.489V89.89c106.25708-.34613,254.968-.35388,363.592-.01965a7.57447,7.57447,0,0,0,.772.03967h.071c1.09015-.01013,2.17547-.01721,3.26471-.02686,2.94311.0094,5.86255.019,8.74237.02887h.026a7.51005,7.51005,0,0,0,1.24139-.11108c34.64606-.25385,68.96613-.2356,104.28955.04907ZM497,74.85c-38.71735-.31171-76.23608-.30176-114.29865.033C273.72974,74.536,122.60193,74.53952,15,74.89V27.34A12.35219,12.35219,0,0,1,27.338,15.002H440.23407c.01349,0,.02649-.002.03992-.002h44.388A12.35223,12.35223,0,0,1,497,27.338Z" transform="translate(0 -0.00002)"/><path class="cls-1" d="M74.16,275.77881H272.48938a7.5,7.5,0,0,0,0-15H74.16a7.5,7.5,0,1,0,0,15Z" transform="translate(0 -0.00002)"/><path class="cls-1" d="M272.48938,303.64985H74.16a7.5,7.5,0,1,0,0,15H272.48938a7.5,7.5,0,0,0,0-15Z" transform="translate(0 -0.00002)"/><path class="cls-1" d="M341.693,38.841H74.16a7.5,7.5,0,0,0,0,15H341.694a7.5,7.5,0,0,0-.001-15Z" transform="translate(0 -0.00002)"/><circle class="cls-1" cx="436.72762" cy="46.341" r="8.61237"/><circle class="cls-1" cx="404.67879" cy="46.341" r="8.61237"/><circle class="cls-1" cx="372.62995" cy="46.341" r="8.61237"/></svg>